<?xml version="1.0" standalone="no"?>
<!DOCTYPE svg PUBLIC "-//W3C//DTD SVG 1.1//EN" "http://www.w3.org/Graphics/SVG/1.1/DTD/svg11.dtd" >
<svg xmlns="http://www.w3.org/2000/svg" xmlns:xlink="http://www.w3.org/1999/xlink" version="1.1">
<metadata>
Created by FontForge 20170731 at Fri Mar 31 02:53:25 2006
 By Aleksey,,,
CZ-3.0, 1991 Adobe Systems Inc., 2003 Quentin spol. s r.o.
</metadata>
<defs>
<font id="HelveticaCondensedCELight" horiz-adv-x="444" >
  <font-face 
    font-family="Helvetica Condensed CE Light"
    font-weight="300"
    font-stretch="condensed"
    units-per-em="1000"
    panose-1="2 0 5 6 5 0 0 2 0 4"
    ascent="800"
    descent="-200"
    x-height="552"
    cap-height="750"
    bbox="-41 -223 1000 933"
    underline-thickness="58"
    underline-position="-206"
    unicode-range="U+0020-FB02"
  />
<missing-glyph horiz-adv-x="500" 
 />
    <glyph glyph-name="fi" unicode="fi" 
d="M84 0v501h-59v51h59v60q0 84 24 113t105 25v-51q-27 1 -41.5 -1.5t-21 -13.5t-7.5 -20t-1 -34v-15v-63h69v-51h-69v-501h-58zM372 0h-58v552h58v-552zM376 750v-95h-67v95h67z" />
    <glyph glyph-name="fl" unicode="fl" 
d="M84 0v501h-59v51h59v60q0 84 24 113t105 25v-51q-27 1 -41.5 -1.5t-21 -13.5t-7.5 -20t-1 -34v-15v-63h71v-51h-71v-501h-58zM372 0h-58v750h58v-750z" />
    <glyph glyph-name=".notdef" horiz-adv-x="500" 
 />
    <glyph glyph-name=".null" horiz-adv-x="0" 
 />
    <glyph glyph-name="nonmarkingreturn" horiz-adv-x="333" 
 />
    <glyph glyph-name="space" unicode=" " horiz-adv-x="222" 
 />
    <glyph glyph-name="exclam" unicode="!" horiz-adv-x="222" 
d="M133 189h-40q-12 290 -12 362v199h64v-199q0 -72 -12 -362zM146 13h-69v88h69v-88z" />
    <glyph glyph-name="quotedbl" unicode="&#x22;" horiz-adv-x="309" 
d="M73 524v226h52v-226h-52zM184 524v226h52v-226h-52z" />
    <glyph glyph-name="numbersign" unicode="#" 
d="M49 0l64 249h-100l15 51h97l34 131h-99l15 51h96l65 262h48l-66 -262h70l65 262h47l-65 -262h96l-15 -51h-92l-34 -131h94l-15 -51h-91l-62 -249h-50l64 249h-70l-64 -249h-47zM172 300h70l34 131h-69z" />
    <glyph glyph-name="dollar" unicode="$" 
d="M197 402v258q-99 -15 -99 -128q0 -39 25 -75.5t74 -54.5zM244 315v-278q54 2 84.5 42t30.5 97q0 92 -115 139zM244 -14v-82h-47v82q-91 8 -133.5 69t-37.5 156h60q-2 -44 6 -79t35 -62.5t70 -31.5v298q-78 34 -120 79.5t-42 121.5q0 14 2.5 30.5t12.5 41.5t26 45
t47.5 36.5t73.5 20.5v67h47v-62q155 -32 155 -193h-58q0 48 -23.5 87t-73.5 50v-278q81 -34 120 -71q56 -53 56 -134q0 -82 -47 -132t-129 -59z" />
    <glyph glyph-name="percent" unicode="%" horiz-adv-x="778" 
d="M575 358q131 0 131 -181q0 -179 -132 -179q-41 0 -69 14.5t-41 42t-18 56t-5 66.5q0 181 134 181zM577 42q73 0 73 135q0 27 -2 45.5t-8.5 42t-23 36.5t-41.5 13q-78 1 -78 -137q0 -73 19.5 -104t60.5 -31zM207 728q131 0 131 -181q0 -178 -132 -178q-41 0 -69 14.5
t-41 41.5t-18 55.5t-5 66.5q0 181 134 181zM209 413q73 0 73 135q0 26 -2 45t-8.5 42t-23 36t-41.5 13q-78 1 -78 -136q0 -73 19.5 -104t60.5 -31zM215 -15l304 756h44l-304 -756h-44z" />
    <glyph glyph-name="ampersand" unicode="&#x26;" horiz-adv-x="611" 
d="M416 119l-174 264q-58 -43 -86 -86.5t-28 -108.5q0 -67 39 -107.5t103 -40.5q98 0 146 79zM260 470q39 27 63.5 69t24.5 88q0 83 -77 83q-36 0 -56 -20.5t-20 -57.5q0 -74 65 -162zM215 431q-28 42 -41.5 64.5t-25 58.5t-11.5 76q0 65 37.5 101.5t100.5 36.5q60 0 99 -36
t39 -98q0 -67 -31.5 -116t-89.5 -92l156 -244l3 6q22 66 24 155h65q-1 -47 -14 -110.5t-32 -98.5l-4 -8l83 -133h-71l-51 76l-2 -2t-1 -2q-68 -83 -180 -83q-95 0 -150 56.5t-55 155.5q0 76 40 130.5t112 106.5z" />
    <glyph glyph-name="quotesingle" unicode="'" horiz-adv-x="198" 
d="M73 524v226h52v-226h-52z" />
    <glyph glyph-name="parenleft" unicode="(" horiz-adv-x="278" 
d="M197 768h47q-127 -192 -127 -469q0 -289 127 -490h-47q-145 221 -145 489q0 270 145 470z" />
    <glyph glyph-name="parenright" unicode=")" horiz-adv-x="278" 
d="M81 -191h-47q127 193 127 468q0 270 -120 481q-1 1 -7 10h47q145 -218 145 -477q0 -284 -145 -482z" />
    <glyph glyph-name="asterisk" unicode="*" horiz-adv-x="389" 
d="M156 593l-108 37l14 42l112 -42v114h44v-114l111 42l13 -45l-109 -36l72 -105l-36 -24l-75 107l-77 -107l-35 27z" />
    <glyph glyph-name="plus" unicode="+" 
d="M197 220h-176v51h176v219h51v-219h176v-51h-176v-220h-51v220z" />
    <glyph glyph-name="comma" unicode="," horiz-adv-x="222" 
d="M77 -136v37q5 2 9.5 5t7.5 8t5.5 8.5t3.5 10.5t2 10t1.5 12t0.5 10.5v11.5v10v13h-30v88h69v-56q0 -47 -2 -71q-4 -45 -18.5 -66.5t-48.5 -30.5z" />
    <glyph glyph-name="hyphen" unicode="-" horiz-adv-x="333" 
d="M294 269h-259v58h259v-58z" />
    <glyph glyph-name="hyphen" unicode="&#xad;" horiz-adv-x="333" 
d="M294 269h-259v58h259v-58z" />
    <glyph glyph-name="period" unicode="." horiz-adv-x="222" 
d="M146 0h-69v88h69v-88z" />
    <glyph glyph-name="slash" unicode="/" horiz-adv-x="278" 
d="M-10 -94l244 844h55l-245 -844h-54z" />
    <glyph glyph-name="zero" unicode="0" 
d="M37 370q0 93 10.5 161t27 108.5t41.5 64.5t50.5 32t58.5 8q38 0 68.5 -14t49 -38t32.5 -55.5t19.5 -66.5t9.5 -70.5t3 -67t0 -58.5v-21q0 -51 -2 -90t-8.5 -84t-19.5 -77t-33 -60t-51.5 -42t-73.5 -14q-40 0 -70 13.5t-49.5 41t-32.5 60t-19 79t-8.5 89.5t-2.5 101z
M102 353q0 -172 26.5 -242.5t89.5 -70.5q18 0 30 2.5t32 19t31.5 47.5t21 95t9.5 154q0 56 -1 92t-5 78.5t-12.5 68t-22 49t-35 34t-50.5 10.5q-62 0 -88 -74t-26 -263z" />
    <glyph glyph-name="one" unicode="1" 
d="M60 560v47q83 2 123 30t48 107h53v-744h-65v572q-18 -3 -75 -8q-65 -5 -84 -4z" />
    <glyph glyph-name="two" unicode="2" 
d="M99 61h297v-61h-362v52q1 29 7 53t12 40t21.5 36t25 30t33 33t36.5 36q13 14 40 41t37 37.5t28.5 32t25.5 35t16 34.5t12 43t3 48q0 51 -25 93.5t-71 45.5q-39 5 -66 -7t-40.5 -38.5t-19.5 -55t-7 -66.5h-62q-4 94 42 157.5t137 63.5q79 0 128 -54t49 -145
q0 -39 -12.5 -77.5t-30 -68t-48 -65.5t-52.5 -57.5t-59 -56.5t-54 -52q-40 -40 -41 -107z" />
    <glyph glyph-name="three" unicode="3" 
d="M192 353h-44v54h20q149 0 149 149q0 58 -25 96t-80 38q-96 0 -107 -146h-59q-1 84 40 142t121 58q85 0 130 -53.5t45 -139.5q0 -16 -3.5 -33.5t-13 -43.5t-33.5 -50t-59 -39q128 -30 128 -189q0 -57 -17 -99.5t-39 -62.5t-52 -32t-46.5 -14t-32.5 -2q-132 0 -171 112
q-14 41 -13 96h61q4 -154 121 -154q64 0 94 45.5t30 112.5q0 25 -5.5 48t-19.5 48t-44.5 41t-74.5 18z" />
    <glyph glyph-name="four" unicode="4" 
d="M28 260l257 484h61v-490h66v-54h-66v-200h-65v200h-253v60zM87 254h194v373h-2z" />
    <glyph glyph-name="five" unicode="5" 
d="M27 178h64q8 -138 112 -138q37 0 63.5 17.5t40.5 47.5t20 64t6 73q0 184 -128 184q-35 0 -62 -19.5t-41 -52.5h-55l43 376h278v-61h-224l-28 -227q37 38 103 38q50 0 86 -20.5t55.5 -55.5t28.5 -75.5t9 -88.5q0 -109 -47 -181.5t-147 -72.5q-170 0 -177 192z" />
    <glyph glyph-name="six" unicode="6" 
d="M222 416q-45 0 -73.5 -27.5t-37.5 -63t-9 -80.5q0 -34 5 -66t17.5 -65t38 -53.5t60.5 -20.5q34 0 59 19t37.5 50t18 61.5t5.5 61.5q0 47 -8.5 84.5t-37 68.5t-75.5 31zM226 -14q-42 0 -74.5 15.5t-52.5 44t-33 60.5t-19 74t-8 73.5t-2 70.5q0 11 1.5 44.5t2 52.5
t3.5 53.5t7 57t11.5 53.5t17 51t24.5 42.5t33.5 35.5t43.5 21.5t55 8.5q70 -1 113.5 -45.5t43.5 -118.5h-60q-8 110 -103 110q-41 0 -68 -35t-38 -81q-18 -77 -22 -175h2q55 71 132 71q48 0 83 -22t53.5 -58.5t27 -74.5t8.5 -79q0 -42 -8 -81.5t-26.5 -79.5t-56.5 -64.5
t-91 -24.5z" />
    <glyph glyph-name="seven" unicode="7" 
d="M51 669v61h361v-59q-43 -53 -89.5 -147t-74.5 -166q-55 -144 -71 -358h-65q8 165 70.5 351t164.5 318h-296z" />
    <glyph glyph-name="eight" unicode="8" 
d="M220 364q-54 0 -86.5 -40t-32.5 -117q0 -68 28 -117t87 -50q128 0 128 167q0 157 -124 157zM221 690q-95 -2 -100 -146h2q0 -56 24 -91t77 -35q52 0 75 39.5t23 95.5q0 137 -101 137zM142 396v2q-81 31 -81 159q0 81 41.5 134t119.5 53q84 0 123 -53t39 -140
q0 -118 -80 -153v-2q103 -51 105 -192q0 -213 -178 -218h-16h-8q-74 -2 -122.5 58t-48.5 157q0 67 22.5 115t83.5 80z" />
    <glyph glyph-name="nine" unicode="9" 
d="M221 690q-34 0 -58.5 -19t-36 -50.5t-16.5 -61.5t-5 -62q0 -184 117 -184q118 0 118 171q0 34 -5 66t-17 65.5t-37 54t-60 20.5zM221 744q41 0 73 -15t51.5 -43.5t32 -59.5t18 -72.5t7.5 -72.5t2 -70q-1 -13 -2 -57t-2 -69t-6 -69t-12.5 -71t-22 -60.5t-34 -52.5
t-49.5 -32.5t-68 -13.5q-70 1 -112.5 45t-42.5 118h60q8 -109 103 -109q41 0 68 34.5t38 80.5q17 74 17 175h-2q-50 -71 -127 -71q-48 0 -83 22t-53 58.5t-26.5 74.5t-8.5 79q0 42 7.5 81.5t26 80t56.5 65t91 24.5z" />
    <glyph glyph-name="colon" unicode=":" horiz-adv-x="222" 
d="M146 433h-69v88h69v-88zM146 0h-69v88h69v-88z" />
    <glyph glyph-name="semicolon" unicode=";" horiz-adv-x="222" 
d="M77 -136v37q5 2 9.5 5t7.5 8t5.5 8.5t3.5 10.5t2 10t1.5 12t0.5 10.5v11.5v10v13h-30v88h69v-56q0 -47 -2 -71q-4 -45 -18.5 -66.5t-48.5 -30.5zM77 433v88h69v-88h-69z" />
    <glyph glyph-name="semicolon" unicode="&#x37e;" horiz-adv-x="222" 
d="M77 -136v37q5 2 9.5 5t7.5 8t5.5 8.5t3.5 10.5t2 10t1.5 12t0.5 10.5v11.5v10v13h-30v88h69v-56q0 -47 -2 -71q-4 -45 -18.5 -66.5t-48.5 -30.5zM77 433v88h69v-88h-69z" />
    <glyph glyph-name="less" unicode="&#x3c;" 
d="M19 223v44l407 234v-56l-353 -195v-5l353 -201v-56z" />
    <glyph glyph-name="equal" unicode="=" 
d="M424 360v-51h-403v51h403zM424 182v-51h-403v51h403z" />
    <glyph glyph-name="greater" unicode="&#x3e;" 
d="M426 267v-44l-407 -234v56l353 195v5l-353 201v56z" />
    <glyph glyph-name="question" unicode="?" horiz-adv-x="389" 
d="M203 171h-56q-4 69 13.5 115.5t63.5 108.5q38 50 56.5 88t18.5 85q0 57 -26.5 92t-75.5 35q-69 0 -92 -41.5t-23 -117.5h-62q-1 37 5.5 71t24 68t54 54.5t88.5 20.5q71 0 120 -45.5t49 -132.5q0 -50 -18 -95t-70 -111q-44 -56 -58 -92t-12 -103zM211 0h-70v88h70v-88z
" />
    <glyph glyph-name="at" unicode="@" horiz-adv-x="800" 
d="M431 564q-52 0 -99 -43.5t-73 -101.5t-26 -107q0 -55 28.5 -87.5t71.5 -32.5q51 0 86 25.5t47 61.5l53 158q16 49 -9 89t-79 38zM549 541l15 49h55l-105 -314q-19 -60 -8 -78q10 -16 37 -16q31 0 68 30t60 64q20 28 36.5 77.5t16.5 91.5q0 122 -91.5 199t-214.5 77
q-143 0 -242.5 -104t-99.5 -246q0 -140 102 -240.5t242 -100.5q81 0 158 39.5t126 106.5h53q-49 -90 -141.5 -142t-195.5 -52q-166 0 -280 115.5t-114 281.5q0 162 116.5 276t278.5 114q140 0 244 -90q109 -94 109 -239q0 -49 -18 -102t-42 -87q-81 -113 -182 -113
q-31 0 -54.5 14.5t-24.5 43.5q-55 -50 -134 -50q-64 0 -100 44t-36 110q0 72 29.5 142t88 119t131.5 49q38 0 70 -18t47 -51z" />
    <glyph glyph-name="A" unicode="A" horiz-adv-x="500" 
d="M150 289h200l-99 379h-2zM213 750h75l201 -750h-66l-59 231h-228l-61 -231h-63z" />
    <glyph glyph-name="B" unicode="B" horiz-adv-x="500" 
d="M195 364h-68v-306h81q93 0 137 34t44 125q0 39 -10.5 67t-26 43.5t-42.5 24t-52 10.5t-63 2zM127 422h67q88 0 131 29t43 114q0 34 -10 58.5t-24.5 37.5t-40 20t-48.5 9t-57 2h-61v-270zM165 0h-103v750h164q104 0 150 -41q57 -50 57 -142q0 -132 -102 -171
q123 -34 123 -180q0 -55 -15 -95t-39.5 -63t-63.5 -36.5t-78 -17.5t-93 -4z" />
    <glyph glyph-name="C" unicode="C" horiz-adv-x="556" 
d="M427 254h65q1 -50 -11 -97t-37 -87t-67.5 -64t-96.5 -24q-45 0 -80.5 15.5t-57.5 37.5t-38 61t-24 69.5t-12 80t-4.5 76.5t-0.5 74q0 55 3.5 99t16.5 97.5t35.5 89.5t64.5 61t99 25q97 0 150 -66.5t54 -167.5h-65q-5 77 -38 126.5t-103 49.5q-32 0 -56.5 -13t-40.5 -31
t-27 -49t-16.5 -55t-8 -62t-3 -56.5t-0.5 -51.5v-11q0 -148 17 -213q35 -128 142 -128q40 0 68.5 19.5t43 53.5t21 68t7.5 73z" />
    <glyph glyph-name="D" unicode="D" horiz-adv-x="556" 
d="M137 692v-634h78q81 0 115 16q105 48 105 302q0 43 -0.5 64t-5.5 65t-14 70.5t-29 55.5t-48 44q-40 22 -145 17h-56zM72 0v750h134q78 0 129.5 -13t92.5 -58q35 -42 53.5 -113t18.5 -134q0 -68 -0.5 -97.5t-7.5 -87t-21 -94.5q-32 -91 -90.5 -122t-161.5 -31h-147z" />
    <glyph glyph-name="E" unicode="E" 
d="M412 0h-345v750h340v-58h-275v-270h250v-58h-250v-306h280v-58z" />
    <glyph glyph-name="F" unicode="F" 
d="M134 0h-65v750h345v-58h-280v-270h250v-58h-250v-364z" />
    <glyph glyph-name="G" unicode="G" horiz-adv-x="556" 
d="M418 314h-161v58h226v-372h-52l-7 77q-56 -95 -164 -95q-44 0 -78.5 15.5t-56.5 38t-38 60t-23.5 69t-12 79t-5 75.5t-0.5 71q0 49 2 84.5t8.5 84t21.5 81.5t38.5 64.5t62.5 47.5t90 16q91 0 147 -64.5t56 -158.5h-62q-22 165 -139 165q-46 0 -78 -25t-47.5 -56.5
t-24 -84.5t-9.5 -82t-1 -77v-10q0 -31 0.5 -52t3.5 -59t8.5 -65t17 -59t27.5 -52t41 -34t56 -14q29 0 52.5 10t39 24.5t27 40t17.5 46t10 53t5 51t2 49.5z" />
    <glyph glyph-name="H" unicode="H" horiz-adv-x="556" 
d="M133 0h-65v750h65v-319h290v319h65v-750h-65v373h-290v-373z" />
    <glyph glyph-name="I" unicode="I" horiz-adv-x="222" 
d="M144 0h-65v750h65v-750z" />
    <glyph glyph-name="J" unicode="J" horiz-adv-x="389" 
d="M12 219h65v-16q0 -30 0.5 -46.5t5.5 -42t14 -39.5t27.5 -24.5t44.5 -10.5q27 0 45 10t25.5 30t9.5 38t2 46v586h65v-590q0 -178 -153 -178q-78 0 -113.5 51.5t-37.5 133.5v52z" />
    <glyph glyph-name="K" unicode="K" horiz-adv-x="500" 
d="M132 0h-65v750h65v-375l273 375h75l-222 -303l233 -447h-70l-205 394l-84 -110v-284z" />
    <glyph glyph-name="L" unicode="L" 
d="M417 0h-343v750h65v-692h278v-58z" />
    <glyph glyph-name="M" unicode="M" horiz-adv-x="722" 
d="M138 685v-685h-65v750h109l178 -654h2l182 654h106v-750h-65v685h-2l-186 -685h-69l-188 685h-2z" />
    <glyph glyph-name="N" unicode="N" horiz-adv-x="556" 
d="M147 750l276 -644h2v644h65v-750h-79l-278 642h-2v-642h-65v750h81z" />
    <glyph glyph-name="O" unicode="O" horiz-adv-x="556" 
d="M276 -18q-35 0 -64.5 9.5t-50.5 24t-38 39t-27.5 47t-18 57t-11 59t-5.5 62.5t-2.5 59t-0.5 57q0 55 3.5 99t17 97.5t36 89.5t64.5 61t99 25q46 0 81.5 -15t58.5 -36.5t39 -59t24 -68t12.5 -79.5t5 -76.5t0.5 -74.5q0 -42 -1 -73t-6 -72.5t-14 -71.5t-25.5 -62t-39.5 -52
t-58 -33t-79 -13zM282 40q32 0 56.5 13t40.5 31t27 49.5t16.5 55.5t8 62.5t3 58t0.5 53.5v11q0 35 -0.5 54.5t-3.5 59.5t-8.5 65.5t-17 58t-28 52t-42.5 33t-59 13.5q-31 0 -56 -13.5t-40.5 -32.5t-26.5 -50.5t-16.5 -57t-8.5 -63.5t-3.5 -59t-0.5 -53q0 -148 17 -213
q35 -128 142 -128z" />
    <glyph glyph-name="P" unicode="P" horiz-adv-x="500" 
d="M141 0h-65v750h133q133 0 193 -42.5t60 -153.5q0 -113 -61 -163q-32 -27 -80 -39.5t-81 -12.5h-99v-339zM141 692v-295h56q49 0 81 5t61.5 20t43.5 46t14 80q0 81 -39 111.5t-122 32.5h-95z" />
    <glyph glyph-name="Q" unicode="Q" horiz-adv-x="556" 
d="M359 66l-76 61l36 45l76 -62q39 70 39 251v13q0 35 -0.5 54.5t-3.5 59.5t-8.5 65.5t-17 58t-28 52t-42.5 33t-59 13.5q-31 0 -56 -13.5t-40.5 -32.5t-26.5 -50.5t-16.5 -57t-8.5 -63.5t-3.5 -59t-0.5 -53q0 -148 17 -213q35 -128 142 -128q46 0 77 26zM445 69l82 -67
l-35 -44l-83 68q-49 -44 -133 -44q-35 0 -64.5 9.5t-50.5 23.5t-38 39t-27.5 47.5t-18 56.5t-11 58.5t-5.5 63t-2.5 59t-0.5 56.5q0 55 3.5 99t17 98t36 90t64.5 61t99 25q46 0 81.5 -15t58.5 -36.5t39 -59t24 -68t12.5 -79.5t5 -76.5t0.5 -74.5q0 -206 -54 -290z" />
    <glyph glyph-name="R" unicode="R" horiz-adv-x="500" 
d="M195 353h-67v-353h-65v750h145q112 0 171.5 -42.5t59.5 -149.5q0 -62 -27.5 -113t-82.5 -63v-2q60 -15 79.5 -58.5t20.5 -124.5q0 -5 0.5 -30.5t2 -46.5t4.5 -46t10 -42t17 -23v-9h-71q-10 22 -16 58.5t-8 66t-3.5 70t-2.5 51.5q-3 36 -16.5 58.5t-39 32.5t-49.5 13
t-62 3zM128 692v-281h114q10 0 22.5 1.5t33 10t36.5 22.5t28 42t12 66q0 79 -36 109t-116 30h-94z" />
    <glyph glyph-name="S" unicode="S" horiz-adv-x="500" 
d="M211 433l58 -24q43 -18 63.5 -27.5t50.5 -29t43.5 -38.5t24 -50t10.5 -71q0 -97 -58.5 -154t-156.5 -57q-100 0 -154 63.5t-52 166.5h64q-1 -76 33.5 -124t107.5 -48q69 0 110 41t41 110q0 21 -4.5 38.5t-9.5 30t-17.5 24.5t-20 19t-26.5 16t-27 12.5t-31.5 12.5
t-31.5 12q-57 23 -91 44.5t-58 62.5t-24 98q0 93 52.5 150t142.5 57q88 0 140.5 -55t50.5 -144h-63q3 63 -32 102t-97 39t-95.5 -40.5t-33.5 -104.5q0 -54 20 -82t71 -50z" />
    <glyph glyph-name="T" unicode="T" 
d="M190 692h-170v58h405v-58h-170v-692h-65v692z" />
    <glyph glyph-name="U" unicode="U" horiz-adv-x="556" 
d="M73 198v552h65v-544q0 -86 28.5 -126t108.5 -40q82 0 112.5 44t30.5 128v538h65v-522q0 -119 -46 -182.5t-160 -63.5q-204 0 -204 216z" />
    <glyph glyph-name="V" unicode="V" horiz-adv-x="500" 
d="M215 0l-201 750h68l168 -665h2l172 665h63l-199 -750h-73z" />
    <glyph glyph-name="W" unicode="W" horiz-adv-x="722" 
d="M397 750l123 -636h2l120 636h63l-148 -750h-73l-125 642h-2l-122 -642h-73l-145 750h66l114 -633h2l123 633h75z" />
    <glyph glyph-name="X" unicode="X" horiz-adv-x="500" 
d="M211 387l-184 363h73l149 -301l153 301h72l-186 -363l194 -387h-71l-162 326l-161 -326h-70z" />
    <glyph glyph-name="Y" unicode="Y" horiz-adv-x="500" 
d="M249 393l165 357h68l-200 -431v-319h-65v319l-198 431h72z" />
    <glyph glyph-name="Z" unicode="Z" 
d="M411 0h-377v60l307 632h-293v58h363v-56l-309 -636h309v-58z" />
    <glyph glyph-name="bracketleft" unicode="[" horiz-adv-x="278" 
d="M229 -58v-46h-155v872h153v-46h-95v-780h97z" />
    <glyph glyph-name="backslash" unicode="\" horiz-adv-x="222" 
d="M208 0l-248 750h54l248 -750h-54z" />
    <glyph glyph-name="bracketright" unicode="]" horiz-adv-x="278" 
d="M204 -104h-155v46h97v780h-95v46h153v-872z" />
    <glyph glyph-name="asciicircum" unicode="^" 
d="M201 750h41l135 -410h-47l-110 335l-107 -335h-47z" />
    <glyph glyph-name="underscore" unicode="_" horiz-adv-x="500" 
d="M500 -119h-500v58h500v-58z" />
    <glyph glyph-name="grave" unicode="`" horiz-adv-x="333" 
d="M229 606h-51l-138 139h78z" />
    <glyph glyph-name="a" unicode="a" horiz-adv-x="389" 
d="M271 201v97q-20 -11 -115 -51q-44 -19 -58 -42t-14 -72q0 -96 77 -96q54 0 82 41t28 123zM97 413h-56q-2 73 36.5 113t110.5 40q80 0 114 -42q27 -35 27 -108v-339q0 -25 7 -31.5t33 -5.5v-42q-26 -10 -64 -3q-6 2 -11 5.5t-7.5 6t-4.5 8t-3 8t-2.5 11t-2.5 11.5h-1
q-43 -59 -122 -59q-70 0 -97.5 41.5t-27.5 114.5q0 103 76 142q25 11 75.5 30.5t75.5 31.5q13 6 15 22q7 40 -2 92q-13 55 -79 55q-15 0 -27 -2.5t-20.5 -6t-15 -11t-10 -12.5t-7 -16.5t-4.5 -16.5t-3 -18.5t-3 -18.5z" />
    <glyph glyph-name="b" unicode="b" 
d="M229 37q27 0 47.5 11.5t32.5 33.5t19.5 43.5t10.5 53t4 50t1 45.5t-0.5 45t-3.5 50t-10.5 54t-19 45t-31.5 35t-46 12q-27 0 -47 -11t-31.5 -33t-19 -42t-10 -52t-3 -47.5t-0.5 -43.5v-10q0 -34 0.5 -55.5t6 -60.5t16 -62.5t32 -42t52.5 -18.5zM122 52v-52h-58v750h58
v-243h2q53 59 124 59q154 0 154 -288q0 -34 -1.5 -61t-6.5 -63.5t-16 -63.5t-28 -52t-44 -38.5t-63 -13.5q-82 0 -119 66h-2z" />
    <glyph glyph-name="c" unicode="c" horiz-adv-x="389" 
d="M300 183h58q1 -86 -35.5 -141.5t-117.5 -55.5q-34 0 -60.5 10t-44 25.5t-30 41t-18.5 48.5t-10 56t-4.5 56t-0.5 56q0 35 2 63t7 63.5t16.5 62t29 50t46 36t65.5 12.5q71 0 111 -52t39 -125h-57q-2 54 -27 90.5t-70 35.5q-22 -1 -39 -10t-27.5 -21.5t-18 -35t-11.5 -39.5
t-6 -45.5t-2 -42.5v-41v-11q0 -30 0.5 -45t3 -48.5t9.5 -52.5t18.5 -41.5t32 -33.5t47.5 -11q23 0 40 10t26 22t15.5 36t8 37.5z" />
    <glyph glyph-name="d" unicode="d" 
d="M213 515q-26 0 -46 -12.5t-31.5 -36t-19 -46.5t-10.5 -56t-3.5 -51.5t-0.5 -45.5q0 -230 114 -230q20 0 36.5 7t27 19.5t19 29.5t13 36t7.5 39.5t3.5 41t1.5 39.5t0 34v6v5.5v5.5q0 215 -111 215zM324 507v243h58v-750h-58v52h-2q-34 -66 -119 -66q-43 0 -74 20.5
t-47 49.5t-25 72.5t-11 75.5t-2 74q0 288 161 288q71 0 117 -59h2z" />
    <glyph glyph-name="e" unicode="e" horiz-adv-x="389" 
d="M352 335v-56h-259v-16q0 -34 0.5 -54.5t5.5 -57.5t15 -58.5t31.5 -38.5t51.5 -17q29 0 48.5 12t29 36t13.5 44t6 51h56q0 -84 -37.5 -139t-116.5 -55q-37 0 -65 12.5t-45 37.5t-28 50.5t-15.5 62.5t-6 63t-1.5 62q0 35 1.5 61t6 63.5t15 64t27.5 52t44.5 38.5t64.5 13
q46 0 78.5 -20.5t49 -56t23.5 -73.5t7 -81zM93 330h201q0 185 -101 185q-100 0 -100 -185z" />
    <glyph glyph-name="f" unicode="f" horiz-adv-x="222" 
d="M77 0v501h-59v51h59v60q0 84 24 113t105 25v-51q-27 1 -41.5 -1.5t-21 -13.5t-7.5 -20t-1 -34v-15v-63h69v-51h-69v-501h-58z" />
    <glyph glyph-name="g" unicode="g" 
d="M209 515q-105 0 -105 -245q0 -27 1 -45t3.5 -49t10.5 -52.5t19.5 -43t31.5 -32.5t47 -11q30 0 51.5 17.5t32 40t16 58.5t6.5 57t1 52v20q0 32 -0.5 50t-3 50t-10 51.5t-19.5 40.5t-33 31t-49 10zM324 502v50h58v-540q0 -97 -39 -149t-132 -52q-64 0 -107 31.5t-46 93.5
h59q2 -35 29.5 -53.5t65.5 -20.5q22 0 39 5t28.5 11t20 20t12.5 23t7 29t3.5 28.5t1 31.5t0.5 29h-4q-41 -53 -116 -53q-31 0 -56 10t-41 25.5t-28 40.5t-18 47.5t-9.5 54t-4.5 54t-1 52.5q0 35 1 59.5t5.5 63t14.5 65.5t26 53.5t43.5 40.5t63.5 14q78 0 122 -64h2z" />
    <glyph glyph-name="h" unicode="h" 
d="M121 0h-58v750h58v-247q39 60 120 63q35 2 66.5 -9.5t49.5 -38.5q24 -32 24 -118v-400h-58v389q0 29 -2.5 47.5t-10.5 38.5t-26 30t-46 10q-77 0 -117 -82v-433z" />
    <glyph glyph-name="i" unicode="i" horiz-adv-x="222" 
d="M140 0h-58v552h58v-552zM145 655h-67v95h67v-95z" />
    <glyph glyph-name="j" unicode="j" horiz-adv-x="222" 
d="M21 -189v54q9 -1 37 4q11 4 18 11.5t9 22t2.5 20.5t0.5 23v606h58v-608q0 -28 -1 -41.5t-8 -34.5t-21 -35q-32 -22 -95 -22zM83 750h67v-92h-67v92z" />
    <glyph glyph-name="k" unicode="k" horiz-adv-x="389" 
d="M120 0h-58v750h58v-458l179 260h73l-150 -206l153 -346h-61l-133 287l-61 -85v-202z" />
    <glyph glyph-name="l" unicode="l" horiz-adv-x="222" 
d="M140 0h-58v750h58v-750z" />
    <glyph glyph-name="m" unicode="m" horiz-adv-x="667" 
d="M116 421v-421h-58v552h58v-49h2q38 63 117 63q41 0 67 -11.5t49 -50.5h2q43 62 130 62q70 0 98.5 -39.5t28.5 -110.5v-416h-58v423q0 40 -18 66.5t-58 26.5q-51 0 -82 -30.5t-31 -82.5v-403h-58v399q0 57 -15.5 86.5t-66.5 29.5q-36 0 -71.5 -29.5t-35.5 -64.5z" />
    <glyph glyph-name="n" unicode="n" 
d="M123 407v-407h-58v552h58v-54h2q46 68 125 68q55 0 92 -35t37 -93v-438h-58v401q0 22 -1 36.5t-5.5 30.5t-13 25.5t-24 15.5t-37.5 6q-45 0 -81 -31.5t-36 -76.5z" />
    <glyph glyph-name="o" unicode="o" 
d="M221 -14q-35 0 -62.5 10.5t-45 26.5t-30.5 42.5t-19.5 50t-10 58.5t-4 57.5t-0.5 57.5q0 277 175 277q44 0 77 -19t50.5 -47t28 -69t13.5 -75.5t3 -77.5q0 -57 -5.5 -100t-22 -91t-54 -74.5t-93.5 -26.5zM220 37q28 0 49 11t33.5 33.5t20.5 43.5t11 53.5t3.5 51t0.5 47.5
t-1 48t-4 51t-11 53t-20.5 42.5t-34 32.5t-50.5 11q-110 0 -110 -227v-11q0 -31 0.5 -48.5t3 -50.5t10 -54t19.5 -43t32.5 -33t47.5 -11z" />
    <glyph glyph-name="p" unicode="p" 
d="M116 279q0 -116 15 -162q25 -80 97 -80q26 0 45.5 11.5t31 34t18.5 43t9.5 53t3 48.5t0.5 44t-0.5 45t-3 50.5t-9.5 55.5t-18 45.5t-30.5 35.5t-44.5 12q-24 0 -42.5 -8.5t-30.5 -20t-20.5 -33t-12.5 -37t-6 -43.5t-2 -41v-40v-13zM118 45v-235h-60v742h58v-50
q45 64 112 64q43 0 75 -18t49 -44.5t27 -66t12.5 -72.5t2.5 -75q0 -36 -0.5 -55.5t-3.5 -56.5t-8.5 -59t-17.5 -50.5t-28.5 -44t-43 -27t-59.5 -11.5q-73 0 -115 59z" />
    <glyph glyph-name="q" unicode="q" 
d="M212 37q23 0 41.5 9t30 21t20 34.5t12 39t6 44.5t2.5 42v40v10v9q0 29 -0.5 46t-3 48t-9.5 51t-18.5 41.5t-31 32t-45.5 10.5q-24 0 -42.5 -10t-30 -23.5t-19.5 -38t-12 -42t-6 -48t-2 -43v-39.5q0 -234 108 -234zM324 502v50h58v-741h-60v234q-40 -59 -115 -59
q-38 0 -66 12.5t-45 36.5t-28 49t-15.5 63t-5.5 63t-1 63t1.5 65t6.5 64.5t16 63.5t28.5 50.5t46.5 37t67 12.5q67 0 112 -64z" />
    <glyph glyph-name="r" unicode="r" horiz-adv-x="278" 
d="M124 552v-64h2q22 43 52 61t79 17v-61q-65 1 -97.5 -37t-32.5 -106v-362h-58v552h55z" />
    <glyph glyph-name="s" unicode="s" horiz-adv-x="389" 
d="M44 407q-7 76 30 117.5t112 41.5q71 0 110.5 -41.5t39.5 -113.5h-57q-2 46 -26.5 75t-68.5 29q-40 0 -61 -23.5t-21 -64.5q0 -58 67 -84q46 -21 71.5 -35.5t54.5 -38.5t42 -56.5t13 -74.5q0 -73 -42 -112.5t-115 -39.5q-80 0 -120.5 42t-40.5 122h59q8 -113 106 -113
q44 0 69.5 29.5t25.5 74.5q0 40 -25 68.5t-60.5 46t-71.5 35t-62.5 46.5t-28.5 70z" />
    <glyph glyph-name="t" unicode="t" horiz-adv-x="222" 
d="M201 43v-48q-57 -9 -75 -3q-37 13 -48.5 33.5t-11.5 62.5v413h-50v51h50v162h58v-162h77v-51h-77v-407q0 -47 29 -52q18 -7 48 1z" />
    <glyph glyph-name="u" unicode="u" 
d="M321 132v420h58v-552h-56v51q-51 -65 -141 -65q-70 0 -96 42t-26 116v408h58v-418q0 -53 22.5 -77t74.5 -20q33 1 62.5 29t43.5 66z" />
    <glyph glyph-name="v" unicode="v" horiz-adv-x="389" 
d="M79 552l116 -447h2l117 447h59l-146 -552h-63l-147 552h62z" />
    <glyph glyph-name="w" unicode="w" horiz-adv-x="556" 
d="M310 552l87 -440h2l89 440h57l-120 -552h-61l-85 433h-2l-85 -433h-64l-117 552h58l90 -440h2l85 440h64z" />
    <glyph glyph-name="x" unicode="x" horiz-adv-x="389" 
d="M311 0l-118 234l-117 -234h-63l145 289l-135 263h65l105 -213l107 213h67l-138 -263l147 -289h-65z" />
    <glyph glyph-name="y" unicode="y" horiz-adv-x="389" 
d="M28 -188v51q19 0 37.5 -1t36 8t26.5 27q18 41 32 101l-143 554h61l114 -447h2l120 447h59l-150 -545l-5 -20t-6 -23t-6.5 -22.5t-7.5 -24t-8.5 -22.5t-11 -22.5t-12 -19t-14 -17.5t-16.5 -13q-18 -10 -37 -13t-43.5 -0.5t-27.5 2.5z" />
    <glyph glyph-name="z" unicode="z" horiz-adv-x="333" 
d="M315 0h-297v55l231 446h-219v51h280v-54l-229 -447h234v-51z" />
    <glyph glyph-name="braceleft" unicode="{" horiz-adv-x="351" 
d="M130 450v168q0 86 31 119.5t116 30.5v-2q-47 -20 -63.5 -45.5t-16.5 -66.5v-177q0 -58 -17.5 -90t-72.5 -49v-2q53 -9 71.5 -38.5t18.5 -86.5v-190q0 -41 15.5 -66t64.5 -46v-2q-26 0 -39.5 1t-33.5 7t-36 18q-38 28 -38 107v189q0 19 -0.5 28.5t-5.5 23t-15 25.5
q-24 27 -61 30v2q36 10 53 24q14 11 20.5 27t7.5 26.5t1 34.5z" />
    <glyph glyph-name="bar" unicode="|" horiz-adv-x="222" 
d="M85 0v750h52v-750h-52z" />
    <glyph glyph-name="braceright" unicode="}" horiz-adv-x="351" 
d="M221 635v-189q0 -19 0.5 -28.5t5.5 -23t15 -25.5q24 -27 61 -30v-2q-36 -10 -53 -24q-14 -11 -20.5 -27t-7.5 -26.5t-1 -34.5v-168q0 -86 -31 -119.5t-116 -30.5v2q47 20 63.5 45.5t16.5 66.5v177q0 58 17.5 90t72.5 49v2q-53 9 -71.5 38.5t-18.5 86.5v190q0 41 -15.5 66
t-64.5 46v2q26 0 39.5 -1t33.5 -7t36 -18q38 -28 38 -107z" />
    <glyph glyph-name="asciitilde" unicode="~" 
d="M54 179l-33 35q52 86 114 86q32 0 94 -26q64 -26 82 -26q42 0 80 61l33 -34q-50 -81 -113 -81q-22 0 -108 32q-50 19 -68 19q-19 0 -36.5 -12.5t-24 -22t-20.5 -31.5z" />
    <glyph glyph-name="exclamdown" unicode="&#xa1;" horiz-adv-x="222" 
d="M89 376h40q12 -290 12 -362v-199h-64v199q0 72 12 362zM146 464h-69v88h69v-88z" />
    <glyph glyph-name="cent" unicode="&#xa2;" 
d="M256 503q-22 6 -55 -1q-23 -6 -39 -27.5t-23.5 -44t-11 -60.5t-4 -55t-0.5 -49q0 -153 40 -196zM201 43q15 -6 33 -6q20 0 34.5 5.5t24.5 19t15.5 23t10 32.5t5.5 30.5t4 33.5h56q0 -54 -13 -95.5t-48 -70t-90 -28.5q-24 0 -43 4l-29 -134h-44l32 150q-87 38 -87 269
q0 41 2.5 74.5t13 74.5t27.5 68.5t49 46.5t76 19q20 0 37 -4l25 116h44l-29 -133q71 -43 73 -154h-56q-3 63 -30 93z" />
    <glyph glyph-name="sterling" unicode="&#xa3;" 
d="M123 329h-104v41h88q-51 114 -51 202q0 70 48 117.5t118 47.5q183 0 188 -217h-60q-6 164 -120 164q-55 0 -84 -35t-29 -91q0 -19 3 -37.5t10 -41t11.5 -35.5t15.5 -39.5t14 -34.5h153v-41h-138q21 -59 5 -142.5t-68 -130.5q2 0 14.5 2.5t18 3.5t18 2.5t21.5 1t21.5 -1.5
t25 -4.5t25.5 -8.5q38 -12 62 -12q36 0 77 25l22 -47q-22 -18 -63 -27t-73 -1q-6 2 -44.5 12t-59.5 15q-59 14 -130 -37l-33 37q59 51 86.5 98.5t27.5 115.5q0 51 -16 99z" />
    <glyph glyph-name="currency" unicode="&#xa4;" 
d="M1 104l39 38q-43 62 -43 133q0 76 43 136l-39 39l47 47l40 -38q59 44 138 44q68 0 132 -44l39 38l47 -47l-39 -39q43 -61 43 -140q0 -66 -43 -129l39 -38l-47 -48l-39 39q-62 -45 -140 -45q-67 0 -130 45l-40 -39zM384 278q0 65 -47 113t-111 47q-70 2 -118 -45.5
t-47 -117.5q-1 -65 46.5 -112t113.5 -48q68 1 115.5 48t47.5 115z" />
    <glyph glyph-name="yen" unicode="&#xa5;" 
d="M454 738l-199 -424v-34h137v-48h-137v-52h135v-48h-135v-132h-65v132h-138v48h138v52h-138v48h138v34l-199 424h72l158 -351l165 351h68z" />
    <glyph glyph-name="brokenbar" unicode="&#xa6;" horiz-adv-x="222" 
d="M85 -175v350h52v-350h-52zM85 675h52v-350h-52v350z" />
    <glyph glyph-name="section" unicode="&#xa7;" 
d="M293 378l-137 99q-36 -16 -58 -46t-22 -68q0 -36 14 -58t47 -45l154 -109q33 15 55.5 44.5t22.5 63.5q0 39 -19 65.5t-57 53.5zM260 103l-154 117q-41 31 -60.5 63t-19.5 77q0 49 24.5 81.5t71.5 62.5q-30 33 -42 59t-12 66q0 62 49 104q24 21 47 28t59 7q72 0 113 -48
t44 -121h-55q-3 53 -27.5 88.5t-74.5 35.5q-43 0 -69 -22t-29 -65q-6 -71 66 -120l112 -76q116 -79 116 -179q0 -83 -94 -141q53 -47 53 -119q0 -67 -43 -107.5t-111 -40.5q-74 0 -117 47.5t-41 122.5h54q-1 -58 26 -91.5t76 -33.5q48 0 74 29t26 68q0 63 -62 108z" />
    <glyph glyph-name="dieresis" unicode="&#xa8;" horiz-adv-x="333" 
d="M56 617v102h64v-102h-64zM214 617v102h64v-102h-64z" />
    <glyph glyph-name="copyright" unicode="&#xa9;" horiz-adv-x="800" 
d="M401 -18q-159 0 -271.5 115.5t-112.5 278.5q0 162 112.5 277.5t271.5 115.5q158 0 270 -115.5t112 -277.5q0 -163 -112 -278.5t-270 -115.5zM401 29q139 0 237 101.5t98 245.5q0 143 -98 244t-237 101q-140 0 -238 -101t-98 -244q0 -144 98.5 -245.5t237.5 -101.5z
M540 304h55q-7 -68 -58 -110t-119 -42q-95 0 -153.5 64.5t-58.5 162.5q0 99 56.5 162.5t152.5 63.5q70 0 119.5 -39.5t60.5 -108.5h-55q-8 45 -43 73.5t-81 28.5q-73 0 -113.5 -51t-40.5 -128q0 -74 42.5 -127.5t113.5 -53.5q46 0 81 28.5t41 76.5z" />
    <glyph glyph-name="ordfeminine" unicode="&#xaa;" horiz-adv-x="266" 
d="M178 522v85q-22 -13 -72 -31q-28 -12 -37.5 -26t-9.5 -43q0 -58 51 -58q32 0 49 20.5t19 52.5zM68 676h-36q-2 44 23.5 68t71.5 24q48 0 70 -21t22 -69v-204q0 -15 4.5 -19t21.5 -4v-25q-15 -6 -42 -2q-5 2 -8 4t-5 5.5t-3 5t-2 7t-2 7.5l-1 1q-29 -35 -79 -35
q-82 0 -82 94q0 61 50 85q16 7 49 18.5t49 18.5q1 1 4 3.5t3.5 3.5l1.5 3t1.5 5t0.5 7v12q0 35 -10 51.5t-44 16.5q-13 0 -23 -3.5t-15 -6.5t-9.5 -12t-5.5 -12.5t-3 -14.5t-2 -12z" />
    <glyph glyph-name="guillemotleft" unicode="&#xab;" horiz-adv-x="500" 
d="M224 130l-141 106v70l141 106v-60l-101 -81l101 -79v-62zM411 130l-141 106v70l141 106v-60l-102 -81l102 -79v-62z" />
    <glyph glyph-name="logicalnot" unicode="&#xac;" 
d="M21 360h403v-267h-51v216h-352v51z" />
    <glyph glyph-name="registered" unicode="&#xae;" horiz-adv-x="800" 
d="M401 -18q-159 0 -271.5 115.5t-112.5 278.5q0 162 112.5 277.5t271.5 115.5q158 0 270 -115.5t112 -277.5q0 -163 -112 -278.5t-270 -115.5zM401 29q139 0 237 101.5t98 245.5q0 143 -98 244t-237 101q-140 0 -238 -101t-98 -244q0 -144 98.5 -245.5t237.5 -101.5z
M462 359l129 -203h-62l-122 203h-96v-203h-52v440h186q69 0 104 -22q23 -14 35.5 -40t12.5 -55q0 -116 -135 -120zM311 401h80h20.5h23.5t22 0.5t23 3t20 6t18 9.5t13 14t10 20t3 26q0 46 -30.5 61t-80.5 15h-122v-155z" />
    <glyph glyph-name="macron" unicode="&#xaf;" horiz-adv-x="333" 
d="M19 690h296v-45h-296v45z" />
    <glyph glyph-name="macron" unicode="&#x2c9;" horiz-adv-x="333" 
d="M19 690h296v-45h-296v45z" />
    <glyph glyph-name="degree" unicode="&#xb0;" horiz-adv-x="400" 
d="M350 594q0 -62 -44 -106t-106 -44t-106 44t-44 106q-1 62 43.5 106t106.5 44t106 -44t44 -106zM310 594q0 45 -32.5 77.5t-78.5 32.5q-45 0 -77.5 -32.5t-31.5 -77.5q0 -46 32 -78t78 -32q45 0 77.5 32t32.5 78z" />
    <glyph glyph-name="plusminus" unicode="&#xb1;" 
d="M197 270h-176v51h176v169h51v-169h176v-51h-176v-170h-51v170zM424 51v-51h-403v51h403z" />
    <glyph glyph-name="twosuperior" unicode="&#xb2;" horiz-adv-x="266" 
d="M58 343h193v-45h-235v31q2 46 17 71t53 61q7 6 10 9q13 12 35.5 32t30.5 28.5t19.5 24t15 31.5t3.5 38q0 30 -15 54.5t-43 27.5q-40 5 -56 -21t-18 -73h-48q-2 56 27.5 94t88.5 38q51 0 83 -32.5t32 -86.5q0 -28 -9.5 -53.5t-31 -51.5t-36.5 -41.5t-47 -43t-42 -36.5
q-26 -22 -27 -56z" />
    <glyph glyph-name="threesuperior" unicode="&#xb3;" horiz-adv-x="266" 
d="M118 505h-29l-1 45h18q86 0 86 78t-64 78q-56 0 -62 -81h-43q-1 50 25.5 85t78.5 35q56 0 85 -32t29 -84q0 -72 -71 -99v-2q84 -16 84 -112q0 -34 -11 -59.5t-25.5 -37.5t-34 -19.5t-30.5 -8.5t-21 -1h-16.5t-29 6.5t-36.5 18t-26.5 37.5t-11.5 63h45q1 -42 16 -63.5
t57 -21.5q72 0 72 88q0 17 -2 28.5t-9.5 26t-26 23t-46.5 9.5z" />
    <glyph glyph-name="acute" unicode="&#xb4;" horiz-adv-x="333" 
d="M155 606h-51l111 139h78z" />
    <glyph glyph-name="mu" unicode="&#xb5;" 
d="M321 132v420h58v-552h-56v51h-2q-48 -65 -139 -65q-36 0 -64 24v-199h-58v741h58v-418q0 -53 22.5 -77t74.5 -20q33 1 62.5 29t43.5 66z" />
    <glyph glyph-name="mu" unicode="&#x3bc;" 
d="M321 132v420h58v-552h-56v51h-2q-48 -65 -139 -65q-36 0 -64 24v-199h-58v741h58v-418q0 -53 22.5 -77t74.5 -20q33 1 62.5 29t43.5 66z" />
    <glyph glyph-name="paragraph" unicode="&#xb6;" horiz-adv-x="564" 
d="M229 -116v482q-75 -1 -125.5 55t-50.5 135q0 99 55 145.5t152 48.5h183v-866h-58v799h-98v-799h-58z" />
    <glyph glyph-name="periodcentered" unicode="&#xb7;" horiz-adv-x="222" 
d="M146 201h-69v88h69v-88z" />
    <glyph glyph-name="periodcentered" unicode="&#x2219;" horiz-adv-x="222" 
d="M146 201h-69v88h69v-88z" />
    <glyph glyph-name="cedilla" unicode="&#xb8;" horiz-adv-x="333" 
d="M57 -188l15 30q43 -15 63 -15q26 0 46.5 11.5t20.5 35.5q0 26 -29.5 35t-64.5 -4l-15 13l60 82h38l-46 -59q21 6 32 6q37 0 59.5 -19.5t22.5 -52.5q0 -42 -33.5 -62t-78.5 -20q-44 0 -90 19z" />
    <glyph glyph-name="onesuperior" unicode="&#xb9;" horiz-adv-x="266" 
d="M57 634v28q54 2 80 18.5t31 63.5h42v-446h-50v343q-10 -2 -27 -3t-22 -2q-45 -2 -54 -2z" />
    <glyph glyph-name="ordmasculine" unicode="&#xba;" horiz-adv-x="266" 
d="M134 768q112 0 112 -171q0 -27 -2 -49t-9.5 -46t-19.5 -40t-33 -26.5t-50 -10.5q-38 0 -62 15t-34.5 44t-13.5 55t-3 65q0 164 115 164zM129 737q-34 0 -52 -31t-18 -67.5v-65.5q1 -25 2.5 -37t6.5 -32t16.5 -31t30.5 -17q26 -3 43.5 5t26.5 19.5t14 35t5.5 39t0.5 42.5
q0 29 -1.5 47t-8 43t-23.5 37.5t-43 12.5z" />
    <glyph glyph-name="guillemotright" unicode="&#xbb;" horiz-adv-x="500" 
d="M276 352v60l141 -106v-70l-141 -106v62l101 79zM89 412l141 -106v-70l-141 -106v62l102 79l-102 81v60z" />
    <glyph glyph-name="onequarter" unicode="&#xbc;" horiz-adv-x="666" 
d="M399 159l164 287h47v-294h38v-37h-38v-115h-47v115h-164v44zM437 152h126v224h-2zM92 0l452 744h50l-450 -744h-52zM19 634v28q54 2 80 18.5t31 63.5h42v-446h-50v343q-10 -2 -27 -3t-22 -2q-45 -2 -54 -2z" />
    <glyph glyph-name="onehalf" unicode="&#xbd;" horiz-adv-x="666" 
d="M75 0l452 744h50l-450 -744h-52zM2 634v28q54 2 80 18.5t31 63.5h42v-446h-50v343q-10 -2 -27 -3t-22 -2q-45 -2 -54 -2zM471 45h193v-45h-235v31q2 46 17 71t53 61q3 3 5.5 5t4.5 4q13 12 35.5 32t30.5 28.5t19.5 24t15 31.5t3.5 38q0 30 -15 54.5t-43 27.5
q-40 5 -56 -21t-18 -73h-48q-2 56 27.5 94t88.5 38q51 0 83 -32.5t32 -86.5q0 -28 -9.5 -53.5t-31 -51.5t-36.5 -41.5t-47 -43t-42 -36.5q-26 -22 -27 -56z" />
    <glyph glyph-name="threequarters" unicode="&#xbe;" horiz-adv-x="666" 
d="M401 159l164 287h47v-294h38v-37h-38v-115h-47v115h-164v44zM124 0l452 744h50l-450 -744h-52zM439 152h126v224h-2zM122 504h-29l-1 45h18q86 0 86 78t-64 78q-56 0 -62 -81h-43q-1 50 25.5 85t78.5 35q56 0 85 -32t29 -84q0 -72 -71 -99v-2q84 -16 84 -112
q0 -34 -11 -59.5t-25.5 -37.5t-34 -19.5t-30.5 -8.5t-21 -1h-16.5t-29 6.5t-36.5 18t-26.5 37.5t-11.5 63h45q1 -42 16 -63.5t57 -21.5q72 0 72 88q0 17 -2 28.5t-9.5 26t-26 23t-46.5 9.5z" />
    <glyph glyph-name="questiondown" unicode="&#xbf;" horiz-adv-x="389" 
d="M178 377h56q4 -69 -13.5 -115.5t-63.5 -108.5q-38 -50 -56.5 -88t-18.5 -85q0 -57 26.5 -92t75.5 -35q69 0 92 41.5t23 117.5h62q1 -37 -5.5 -71t-24 -68t-54 -54.5t-88.5 -20.5q-71 0 -120 45.5t-49 132.5q0 50 18 95t70 111q44 56 58 92t12 103zM170 552h70v-88h-70v88
z" />
    <glyph glyph-name="Agrave" unicode="&#xc0;" horiz-adv-x="500" 
d="M150 289h200l-99 379h-2zM213 750h75l201 -750h-66l-59 231h-228l-61 -231h-63zM293 792h-51l-129 112h78z" />
    <glyph glyph-name="Aacute" unicode="&#xc1;" horiz-adv-x="500" 
d="M150 289h200l-99 379h-2zM213 750h75l201 -750h-66l-59 231h-228l-61 -231h-63zM266 792h-51l102 112h78z" />
    <glyph glyph-name="Acircumflex" unicode="&#xc2;" horiz-adv-x="500" 
d="M150 289h200l-99 379h-2zM213 750h75l201 -750h-66l-59 231h-228l-61 -231h-63zM331 792l-82 74l-83 -74h-64l113 112h67l114 -112h-65z" />
    <glyph glyph-name="Atilde" unicode="&#xc3;" horiz-adv-x="500" 
d="M150 289h200l-99 379h-2zM213 750h75l201 -750h-66l-59 231h-228l-61 -231h-63zM354 807q-41 -12 -104 19q-60 26 -83 20q-3 -1 -6 -3t-5 -3.5t-4.5 -4.5t-4 -4t-3.5 -5l-2.5 -5t-2.5 -5.5t-2.5 -5.5t-2.5 -6t-2 -6h-37q6 41 30 69t60 28q23 0 66.5 -19t54.5 -22
q32 -8 45 3.5t20 42.5h38q-8 -70 -55 -93z" />
    <glyph glyph-name="Adieresis" unicode="&#xc4;" horiz-adv-x="500" 
d="M150 289h200l-99 379h-2zM213 750h75l201 -750h-66l-59 231h-228l-61 -231h-63zM136 792v102h64v-102h-64zM294 792v102h64v-102h-64z" />
    <glyph glyph-name="Aring" unicode="&#xc5;" horiz-adv-x="500" 
d="M150 289h200l-99 379h-2zM213 750h75l201 -750h-66l-59 231h-228l-61 -231h-63zM250 753q-36 0 -62.5 27t-26.5 63t27 63t62 27q36 0 63 -26.5t27 -63.5q0 -36 -26.5 -63t-63.5 -27zM250 903q-24 0 -41.5 -17.5t-17.5 -42.5q0 -24 18 -41.5t41 -17.5q24 0 42 18t18 41
q0 24 -17.5 42t-42.5 18z" />
    <glyph glyph-name="AE" unicode="&#xc6;" horiz-adv-x="722" 
d="M6 0l265 750h414v-58h-276v-273h251v-58h-251v-303h279v-58h-344v229h-193l-78 -229h-67zM344 692h-31l-142 -405h173v405z" />
    <glyph glyph-name="Ccedilla" unicode="&#xc7;" horiz-adv-x="556" 
d="M213 -82l48 66q-32 2 -59 13.5t-46 26.5t-34 40t-25 46.5t-16.5 55.5t-10 57.5t-5.5 61t-2 57v54.5q0 55 3.5 99t16.5 97.5t35.5 89.5t64.5 61t99 25q97 0 150 -66.5t54 -167.5h-65q-5 77 -38 126.5t-103 49.5q-32 0 -56.5 -13t-40.5 -31t-27 -49t-16.5 -55t-8 -62
t-3 -56.5t-0.5 -51.5v-11q0 -148 17 -213q35 -128 142 -128q40 0 68.5 19.5t43 53.5t21 68t7.5 73h65q2 -102 -48 -182.5t-146 -88.5l-33 -40l2 -2q15 6 30 6q37 0 59.5 -19.5t22.5 -52.5q0 -42 -33.5 -62t-78.5 -20q-44 0 -90 19l15 30q43 -15 63 -15q26 0 46.5 11.5
t20.5 35.5q0 26 -29.5 35t-64.5 -4z" />
    <glyph glyph-name="Egrave" unicode="&#xc8;" 
d="M412 0h-345v750h340v-58h-275v-270h250v-58h-250v-306h280v-58zM301 792h-51l-129 112h78z" />
    <glyph glyph-name="Eacute" unicode="&#xc9;" 
d="M412 0h-345v750h340v-58h-275v-270h250v-58h-250v-306h280v-58zM251 792h-51l102 112h78z" />
    <glyph glyph-name="Ecircumflex" unicode="&#xca;" 
d="M412 0h-345v750h340v-58h-275v-270h250v-58h-250v-306h280v-58zM324 792l-82 74l-83 -74h-64l113 112h67l114 -112h-65z" />
    <glyph glyph-name="Edieresis" unicode="&#xcb;" 
d="M412 0h-345v750h340v-58h-275v-270h250v-58h-250v-306h280v-58zM125 792v102h64v-102h-64zM283 792v102h64v-102h-64z" />
    <glyph glyph-name="Igrave" unicode="&#xcc;" horiz-adv-x="222" 
d="M144 0h-65v750h65v-750zM150 792h-51l-129 112h78z" />
    <glyph glyph-name="Iacute" unicode="&#xcd;" horiz-adv-x="222" 
d="M144 0h-65v750h65v-750zM128 792h-51l102 112h78z" />
    <glyph glyph-name="Icircumflex" unicode="&#xce;" horiz-adv-x="222" 
d="M144 0h-65v750h65v-750zM193 792l-82 74l-83 -74h-64l113 112h67l114 -112h-65z" />
    <glyph glyph-name="Idieresis" unicode="&#xcf;" horiz-adv-x="222" 
d="M144 0h-65v750h65v-750zM-1 792v102h64v-102h-64zM157 792v102h64v-102h-64z" />
    <glyph glyph-name="Eth" unicode="&#xd0;" horiz-adv-x="556" 
d="M137 692v-238h136v-54h-136v-342h78q81 0 115 16q105 49 105 302q0 123 -19.5 195.5t-77.5 103.5q-32 17 -145 17h-56zM72 0v400h-72v54h72v296h134q78 0 129.5 -13t92.5 -58q33 -35 52.5 -109.5t19.5 -137.5q0 -68 -0.5 -97.5t-7.5 -87t-21 -94.5q-35 -91 -92.5 -122
t-159.5 -31h-147z" />
    <glyph glyph-name="Ntilde" unicode="&#xd1;" horiz-adv-x="556" 
d="M147 750l276 -644h2v644h65v-750h-79l-278 642h-2v-642h-65v750h81zM394 807q-41 -12 -104 19q-60 26 -83 20q-3 -1 -6 -3t-5 -3.5t-4.5 -4.5t-4 -4t-3.5 -5l-2.5 -5t-2.5 -5.5t-2.5 -5.5t-2.5 -6t-2 -6h-37q6 41 30 69t60 28q23 0 66.5 -19t54.5 -22q32 -8 45 3.5
t20 42.5h38q-8 -70 -55 -93z" />
    <glyph glyph-name="Ograve" unicode="&#xd2;" horiz-adv-x="556" 
d="M276 -18q-35 0 -64.5 9.5t-50.5 24t-38 39t-27.5 47t-18 57t-11 59t-5.5 62.5t-2.5 59t-0.5 57q0 55 3.5 99t17 97.5t36 89.5t64.5 61t99 25q46 0 81.5 -15t58.5 -36.5t39 -59t24 -68t12.5 -79.5t5 -76.5t0.5 -74.5q0 -42 -1 -73t-6 -72.5t-14 -71.5t-25.5 -62t-39.5 -52
t-58 -33t-79 -13zM282 40q32 0 56.5 13t40.5 31t27 49.5t16.5 55.5t8 62.5t3 58t0.5 53.5v11q0 35 -0.5 54.5t-3.5 59.5t-8.5 65.5t-17 58t-28 52t-42.5 33t-59 13.5q-31 0 -56 -13.5t-40.5 -32.5t-26.5 -50.5t-16.5 -57t-8.5 -63.5t-3.5 -59t-0.5 -53q0 -148 17 -213
q35 -128 142 -128zM342 792h-51l-129 112h78z" />
    <glyph glyph-name="Oacute" unicode="&#xd3;" horiz-adv-x="556" 
d="M276 -18q-35 0 -64.5 9.5t-50.5 24t-38 39t-27.5 47t-18 57t-11 59t-5.5 62.5t-2.5 59t-0.5 57q0 55 3.5 99t17 97.5t36 89.5t64.5 61t99 25q46 0 81.5 -15t58.5 -36.5t39 -59t24 -68t12.5 -79.5t5 -76.5t0.5 -74.5q0 -42 -1 -73t-6 -72.5t-14 -71.5t-25.5 -62t-39.5 -52
t-58 -33t-79 -13zM282 40q32 0 56.5 13t40.5 31t27 49.5t16.5 55.5t8 62.5t3 58t0.5 53.5v11q0 35 -0.5 54.5t-3.5 59.5t-8.5 65.5t-17 58t-28 52t-42.5 33t-59 13.5q-31 0 -56 -13.5t-40.5 -32.5t-26.5 -50.5t-16.5 -57t-8.5 -63.5t-3.5 -59t-0.5 -53q0 -148 17 -213
q35 -128 142 -128zM290 792h-51l102 112h78z" />
    <glyph glyph-name="Ocircumflex" unicode="&#xd4;" horiz-adv-x="556" 
d="M276 -18q-35 0 -64.5 9.5t-50.5 24t-38 39t-27.5 47t-18 57t-11 59t-5.5 62.5t-2.5 59t-0.5 57q0 55 3.5 99t17 97.5t36 89.5t64.5 61t99 25q46 0 81.5 -15t58.5 -36.5t39 -59t24 -68t12.5 -79.5t5 -76.5t0.5 -74.5q0 -42 -1 -73t-6 -72.5t-14 -71.5t-25.5 -62t-39.5 -52
t-58 -33t-79 -13zM282 40q32 0 56.5 13t40.5 31t27 49.5t16.5 55.5t8 62.5t3 58t0.5 53.5v11q0 35 -0.5 54.5t-3.5 59.5t-8.5 65.5t-17 58t-28 52t-42.5 33t-59 13.5q-31 0 -56 -13.5t-40.5 -32.5t-26.5 -50.5t-16.5 -57t-8.5 -63.5t-3.5 -59t-0.5 -53q0 -148 17 -213
q35 -128 142 -128zM359 792l-82 74l-83 -74h-64l113 112h67l114 -112h-65z" />
    <glyph glyph-name="Otilde" unicode="&#xd5;" horiz-adv-x="556" 
d="M276 -18q-35 0 -64.5 9.5t-50.5 24t-38 39t-27.5 47t-18 57t-11 59t-5.5 62.5t-2.5 59t-0.5 57q0 55 3.5 99t17 97.5t36 89.5t64.5 61t99 25q46 0 81.5 -15t58.5 -36.5t39 -59t24 -68t12.5 -79.5t5 -76.5t0.5 -74.5q0 -42 -1 -73t-6 -72.5t-14 -71.5t-25.5 -62t-39.5 -52
t-58 -33t-79 -13zM282 40q32 0 56.5 13t40.5 31t27 49.5t16.5 55.5t8 62.5t3 58t0.5 53.5v11q0 35 -0.5 54.5t-3.5 59.5t-8.5 65.5t-17 58t-28 52t-42.5 33t-59 13.5q-31 0 -56 -13.5t-40.5 -32.5t-26.5 -50.5t-16.5 -57t-8.5 -63.5t-3.5 -59t-0.5 -53q0 -148 17 -213
q35 -128 142 -128zM381 807q-41 -12 -104 19q-60 26 -83 20q-3 -1 -6 -3t-5 -3.5t-4.5 -4.5t-4 -4t-3.5 -5l-2.5 -5t-2.5 -5.5t-2.5 -5.5t-2.5 -6t-2 -6h-37q6 41 30 69t60 28q23 0 66.5 -19t54.5 -22q32 -8 45 3.5t20 42.5h38q-8 -70 -55 -93z" />
    <glyph glyph-name="Odieresis" unicode="&#xd6;" horiz-adv-x="556" 
d="M276 -18q-35 0 -64.5 9.5t-50.5 24t-38 39t-27.5 47t-18 57t-11 59t-5.5 62.5t-2.5 59t-0.5 57q0 55 3.5 99t17 97.5t36 89.5t64.5 61t99 25q46 0 81.5 -15t58.5 -36.5t39 -59t24 -68t12.5 -79.5t5 -76.5t0.5 -74.5q0 -42 -1 -73t-6 -72.5t-14 -71.5t-25.5 -62t-39.5 -52
t-58 -33t-79 -13zM282 40q32 0 56.5 13t40.5 31t27 49.5t16.5 55.5t8 62.5t3 58t0.5 53.5v11q0 35 -0.5 54.5t-3.5 59.5t-8.5 65.5t-17 58t-28 52t-42.5 33t-59 13.5q-31 0 -56 -13.5t-40.5 -32.5t-26.5 -50.5t-16.5 -57t-8.5 -63.5t-3.5 -59t-0.5 -53q0 -148 17 -213
q35 -128 142 -128zM168 792v102h64v-102h-64zM326 792v102h64v-102h-64z" />
    <glyph glyph-name="multiply" unicode="&#xd7;" 
d="M222 204l-164 -164l-37 35l165 165l-165 165l37 36l164 -165l165 165l37 -35l-166 -166l166 -166l-37 -36z" />
    <glyph glyph-name="Oslash" unicode="&#xd8;" horiz-adv-x="556" 
d="M419 564l-261 -441q38 -83 124 -83q32 0 56.5 13t40.5 31t27 49.5t16.5 55.5t8 63t3 58.5t0.5 53.5v3.5v3.5v4q0 123 -15 189zM137 186l261 441q-38 83 -123 83q-27 0 -49.5 -9t-38 -27.5t-27 -38.5t-18 -49.5t-11 -52t-6 -55.5t-2 -50.5t-0.5 -45.5q0 -134 14 -196z
M120 59l-52 -88l-42 27l66 112q-34 86 -34 286q0 55 3.5 99t17 97.5t36 89.5t64.5 61t99 25q106 0 159 -76l47 78l45 -20l-65 -109q35 -83 35 -282q0 -42 -1 -73t-6 -72.5t-14 -71.5t-25.5 -62t-39.5 -52t-58 -33t-79 -13q-104 0 -156 77z" />
    <glyph glyph-name="Ugrave" unicode="&#xd9;" horiz-adv-x="556" 
d="M73 198v552h65v-544q0 -86 28.5 -126t108.5 -40q82 0 112.5 44t30.5 128v538h65v-522q0 -119 -46 -182.5t-160 -63.5q-204 0 -204 216zM336 792h-51l-129 112h78z" />
    <glyph glyph-name="Uacute" unicode="&#xda;" horiz-adv-x="556" 
d="M73 198v552h65v-544q0 -86 28.5 -126t108.5 -40q82 0 112.5 44t30.5 128v538h65v-522q0 -119 -46 -182.5t-160 -63.5q-204 0 -204 216zM284 792h-51l102 112h78z" />
    <glyph glyph-name="Ucircumflex" unicode="&#xdb;" horiz-adv-x="556" 
d="M73 198v552h65v-544q0 -86 28.5 -126t108.5 -40q82 0 112.5 44t30.5 128v538h65v-522q0 -119 -46 -182.5t-160 -63.5q-204 0 -204 216zM363 792l-82 74l-83 -74h-64l113 112h67l114 -112h-65z" />
    <glyph glyph-name="Udieresis" unicode="&#xdc;" horiz-adv-x="556" 
d="M73 198v552h65v-544q0 -86 28.5 -126t108.5 -40q82 0 112.5 44t30.5 128v538h65v-522q0 -119 -46 -182.5t-160 -63.5q-204 0 -204 216zM168 792v102h64v-102h-64zM326 792v102h64v-102h-64z" />
    <glyph glyph-name="Yacute" unicode="&#xdd;" horiz-adv-x="500" 
d="M249 393l165 357h68l-200 -431v-319h-65v319l-198 431h72zM269 792h-51l102 112h78z" />
    <glyph glyph-name="Thorn" unicode="&#xde;" horiz-adv-x="500" 
d="M76 0v750h65v-125h116q32 0 64.5 -9.5t65.5 -31t54 -64t21 -100.5q0 -105 -64.5 -155.5t-161.5 -50.5h-95v-214h-65zM141 567v-295h95q78 0 119.5 38t41.5 110t-41.5 109.5t-119.5 37.5h-95z" />
    <glyph glyph-name="germandbls" unicode="&#xdf;" 
d="M208 406v51q64 -1 87 28t23 97q0 63 -20 99t-77 36q-23 0 -40.5 -6t-28 -20t-16.5 -27t-8.5 -36t-3 -36.5t-0.5 -39.5v-552h-58v539q0 49 6 86t22 71.5t49 53t82 18.5q75 0 112 -52t37 -131q0 -112 -75 -153q29 -7 48 -27t29 -50.5t14 -64t4 -77.5q0 -33 -2 -60
t-10 -60.5t-21.5 -56t-38.5 -37.5t-60 -13q-25 1 -65 19v62q27 -30 57 -30q24 0 40.5 12.5t24.5 28t12 43t4.5 43t0.5 43.5v9q0 107 -28 150.5t-100 39.5z" />
    <glyph glyph-name="agrave" unicode="&#xe0;" horiz-adv-x="389" 
d="M271 201v97q-20 -11 -115 -51q-44 -19 -58 -42t-14 -72q0 -96 77 -96q54 0 82 41t28 123zM97 413h-56q-2 73 36.5 113t110.5 40q80 0 114 -42q27 -35 27 -108v-339q0 -25 7 -31.5t33 -5.5v-42q-26 -10 -64 -3q-6 2 -11 5.5t-7.5 6t-4.5 8t-3 8t-2.5 11t-2.5 11.5h-1
q-43 -59 -122 -59q-70 0 -97.5 41.5t-27.5 114.5q0 103 76 142q25 11 75.5 30.5t75.5 31.5q13 6 15 22q7 40 -2 92q-13 55 -79 55q-15 0 -27 -2.5t-20.5 -6t-15 -11t-10 -12.5t-7 -16.5t-4.5 -16.5t-3 -18.5t-3 -18.5zM247 606h-51l-138 139h78z" />
    <glyph glyph-name="aacute" unicode="&#xe1;" horiz-adv-x="389" 
d="M271 201v97q-20 -11 -115 -51q-44 -19 -58 -42t-14 -72q0 -96 77 -96q54 0 82 41t28 123zM97 413h-56q-2 73 36.5 113t110.5 40q80 0 114 -42q27 -35 27 -108v-339q0 -25 7 -31.5t33 -5.5v-42q-26 -10 -64 -3q-6 2 -11 5.5t-7.5 6t-4.5 8t-3 8t-2.5 11t-2.5 11.5h-1
q-43 -59 -122 -59q-70 0 -97.5 41.5t-27.5 114.5q0 103 76 142q25 11 75.5 30.5t75.5 31.5q13 6 15 22q7 40 -2 92q-13 55 -79 55q-15 0 -27 -2.5t-20.5 -6t-15 -11t-10 -12.5t-7 -16.5t-4.5 -16.5t-3 -18.5t-3 -18.5zM194 606h-51l111 139h78z" />
    <glyph glyph-name="acircumflex" unicode="&#xe2;" horiz-adv-x="389" 
d="M271 201v97q-20 -11 -115 -51q-44 -19 -58 -42t-14 -72q0 -96 77 -96q54 0 82 41t28 123zM97 413h-56q-2 73 36.5 113t110.5 40q80 0 114 -42q27 -35 27 -108v-339q0 -25 7 -31.5t33 -5.5v-42q-26 -10 -64 -3q-6 2 -11 5.5t-7.5 6t-4.5 8t-3 8t-2.5 11t-2.5 11.5h-1
q-43 -59 -122 -59q-70 0 -97.5 41.5t-27.5 114.5q0 103 76 142q25 11 75.5 30.5t75.5 31.5q13 6 15 22q7 40 -2 92q-13 55 -79 55q-15 0 -27 -2.5t-20.5 -6t-15 -11t-10 -12.5t-7 -16.5t-4.5 -16.5t-3 -18.5t-3 -18.5zM280 605l-82 101l-83 -101h-64l113 139h67l114 -139
h-65z" />
    <glyph glyph-name="atilde" unicode="&#xe3;" horiz-adv-x="389" 
d="M271 201v97q-20 -11 -115 -51q-44 -19 -58 -42t-14 -72q0 -96 77 -96q54 0 82 41t28 123zM97 413h-56q-2 73 36.5 113t110.5 40q80 0 114 -42q27 -35 27 -108v-339q0 -25 7 -31.5t33 -5.5v-42q-26 -10 -64 -3q-6 2 -11 5.5t-7.5 6t-4.5 8t-3 8t-2.5 11t-2.5 11.5h-1
q-43 -59 -122 -59q-70 0 -97.5 41.5t-27.5 114.5q0 103 76 142q25 11 75.5 30.5t75.5 31.5q13 6 15 22q7 40 -2 92q-13 55 -79 55q-15 0 -27 -2.5t-20.5 -6t-15 -11t-10 -12.5t-7 -16.5t-4.5 -16.5t-3 -18.5t-3 -18.5zM290 627q-41 -12 -104 19q-60 26 -83 20q-3 -1 -6 -3
t-5 -3.5t-4.5 -4.5t-4 -4t-3.5 -5l-2.5 -5t-2.5 -5.5t-2.5 -5.5t-2.5 -6t-2 -6h-37q6 41 30 69t60 28q23 0 66.5 -19t54.5 -22q32 -8 45 3.5t20 42.5h38q-8 -70 -55 -93z" />
    <glyph glyph-name="adieresis" unicode="&#xe4;" horiz-adv-x="389" 
d="M271 201v97q-20 -11 -115 -51q-44 -19 -58 -42t-14 -72q0 -96 77 -96q54 0 82 41t28 123zM97 413h-56q-2 73 36.5 113t110.5 40q80 0 114 -42q27 -35 27 -108v-339q0 -25 7 -31.5t33 -5.5v-42q-26 -10 -64 -3q-6 2 -11 5.5t-7.5 6t-4.5 8t-3 8t-2.5 11t-2.5 11.5h-1
q-43 -59 -122 -59q-70 0 -97.5 41.5t-27.5 114.5q0 103 76 142q25 11 75.5 30.5t75.5 31.5q13 6 15 22q7 40 -2 92q-13 55 -79 55q-15 0 -27 -2.5t-20.5 -6t-15 -11t-10 -12.5t-7 -16.5t-4.5 -16.5t-3 -18.5t-3 -18.5zM84 617v102h64v-102h-64zM242 617v102h64v-102h-64z
" />
    <glyph glyph-name="aring" unicode="&#xe5;" horiz-adv-x="389" 
d="M271 201v97q-20 -11 -115 -51q-44 -19 -58 -42t-14 -72q0 -96 77 -96q54 0 82 41t28 123zM97 413h-56q-2 73 36.5 113t110.5 40q80 0 114 -42q27 -35 27 -108v-339q0 -25 7 -31.5t33 -5.5v-42q-26 -10 -64 -3q-6 2 -11 5.5t-7.5 6t-4.5 8t-3 8t-2.5 11t-2.5 11.5h-1
q-43 -59 -122 -59q-70 0 -97.5 41.5t-27.5 114.5q0 103 76 142q25 11 75.5 30.5t75.5 31.5q13 6 15 22q7 40 -2 92q-13 55 -79 55q-15 0 -27 -2.5t-20.5 -6t-15 -11t-10 -12.5t-7 -16.5t-4.5 -16.5t-3 -18.5t-3 -18.5zM188 596q-40 0 -69.5 30t-29.5 70t29.5 70t69.5 30
t70 -30t30 -70t-30 -70t-70 -30zM188 762q-27 0 -46.5 -19.5t-19.5 -46.5t20 -46.5t46 -19.5t46 20t20 46t-19.5 46t-46.5 20z" />
    <glyph glyph-name="ae" unicode="&#xe6;" horiz-adv-x="611" 
d="M325 332h200q0 36 -3 61.5t-12 56.5t-32 48t-58 17q-22 0 -39 -8.5t-26.5 -25.5t-16 -32.5t-9 -40.5t-3.5 -39t-1 -37zM583 281h-261q0 -6 0.5 -33t1 -40t3 -39t6 -41t11.5 -34.5t18.5 -30t27 -18.5t37.5 -8q29 0 49 12t29.5 34.5t13.5 44t6 51.5h56q0 -86 -37 -139.5
t-118 -53.5q-49 0 -75 18.5t-56 63.5q-52 -82 -145 -82q-72 0 -99 41t-27 118q0 46 19 84t57 56q29 13 109 41q42 16 50 27.5t8 56.5q0 54 -17.5 79.5t-67.5 25.5q-44 0 -65 -28.5t-20 -74.5h-58q5 76 39.5 115t110.5 39q84 0 121 -56q25 30 50.5 43t63.5 13q33 0 58.5 -9.5
t42 -26.5t28.5 -39.5t17.5 -48.5t9.5 -53.5t3.5 -55t-0.5 -52.5zM263 155v141q-20 -16 -66 -32.5t-57 -22.5q-58 -21 -58 -114q4 -92 75 -92q99 0 106 120z" />
    <glyph glyph-name="ccedilla" unicode="&#xe7;" horiz-adv-x="389" 
d="M133 -82l51 70q-41 4 -70 25t-43.5 47.5t-22.5 69.5t-9.5 73.5t-1.5 75.5q0 35 2 63t7 63.5t16.5 62t29 50t46 36t65.5 12.5q71 0 111 -52t39 -125h-57q-2 54 -27 90.5t-70 35.5q-22 -1 -39 -10t-27.5 -21.5t-18 -35t-11.5 -39.5t-6 -45.5t-2 -42.5v-41v-11
q0 -30 0.5 -45t3 -48.5t9.5 -52.5t18.5 -41.5t32 -33.5t47.5 -11q23 0 40 10t26 22t15.5 36t8 37.5l4.5 40.5h58q1 -80 -31.5 -134.5t-104.5 -60.5l-37 -45l2 -2q15 6 30 6q37 0 59.5 -19.5t22.5 -52.5q0 -42 -33.5 -62t-78.5 -20q-44 0 -90 19l15 30q43 -15 63 -15
q26 0 46.5 11.5t20.5 35.5q0 26 -29.5 35t-64.5 -4z" />
    <glyph glyph-name="egrave" unicode="&#xe8;" horiz-adv-x="389" 
d="M352 335v-56h-259v-16q0 -34 0.5 -54.5t5.5 -57.5t15 -58.5t31.5 -38.5t51.5 -17q29 0 48.5 12t29 36t13.5 44t6 51h56q0 -84 -37.5 -139t-116.5 -55q-37 0 -65 12.5t-45 37.5t-28 50.5t-15.5 62.5t-6 63t-1.5 62q0 35 1.5 61t6 63.5t15 64t27.5 52t44.5 38.5t64.5 13
q46 0 78.5 -20.5t49 -56t23.5 -73.5t7 -81zM93 330h201q0 185 -101 185q-100 0 -100 -185zM244 606h-51l-138 139h78z" />
    <glyph glyph-name="eacute" unicode="&#xe9;" horiz-adv-x="389" 
d="M352 335v-56h-259v-16q0 -34 0.5 -54.5t5.5 -57.5t15 -58.5t31.5 -38.5t51.5 -17q29 0 48.5 12t29 36t13.5 44t6 51h56q0 -84 -37.5 -139t-116.5 -55q-37 0 -65 12.5t-45 37.5t-28 50.5t-15.5 62.5t-6 63t-1.5 62q0 35 1.5 61t6 63.5t15 64t27.5 52t44.5 38.5t64.5 13
q46 0 78.5 -20.5t49 -56t23.5 -73.5t7 -81zM93 330h201q0 185 -101 185q-100 0 -100 -185zM206 606h-51l111 139h78z" />
    <glyph glyph-name="ecircumflex" unicode="&#xea;" horiz-adv-x="389" 
d="M352 335v-56h-259v-16q0 -34 0.5 -54.5t5.5 -57.5t15 -58.5t31.5 -38.5t51.5 -17q29 0 48.5 12t29 36t13.5 44t6 51h56q0 -84 -37.5 -139t-116.5 -55q-37 0 -65 12.5t-45 37.5t-28 50.5t-15.5 62.5t-6 63t-1.5 62q0 35 1.5 61t6 63.5t15 64t27.5 52t44.5 38.5t64.5 13
q46 0 78.5 -20.5t49 -56t23.5 -73.5t7 -81zM93 330h201q0 185 -101 185q-100 0 -100 -185zM272 605l-82 101l-83 -101h-64l113 139h67l114 -139h-65z" />
    <glyph glyph-name="edieresis" unicode="&#xeb;" horiz-adv-x="389" 
d="M352 335v-56h-259v-16q0 -34 0.5 -54.5t5.5 -57.5t15 -58.5t31.5 -38.5t51.5 -17q29 0 48.5 12t29 36t13.5 44t6 51h56q0 -84 -37.5 -139t-116.5 -55q-37 0 -65 12.5t-45 37.5t-28 50.5t-15.5 62.5t-6 63t-1.5 62q0 35 1.5 61t6 63.5t15 64t27.5 52t44.5 38.5t64.5 13
q46 0 78.5 -20.5t49 -56t23.5 -73.5t7 -81zM93 330h201q0 185 -101 185q-100 0 -100 -185zM88 617v102h64v-102h-64zM246 617v102h64v-102h-64z" />
    <glyph glyph-name="igrave" unicode="&#xec;" horiz-adv-x="222" 
d="M140 0h-58v552h58v-552zM148 606h-51l-138 139h78z" />
    <glyph glyph-name="iacute" unicode="&#xed;" horiz-adv-x="222" 
d="M130 606h-51l111 139h78zM140 0h-58v552h58v-552z" />
    <glyph glyph-name="icircumflex" unicode="&#xee;" horiz-adv-x="222" 
d="M140 0h-58v552h58v-552zM193 605l-82 101l-83 -101h-64l113 139h67l114 -139h-65z" />
    <glyph glyph-name="idieresis" unicode="&#xef;" horiz-adv-x="222" 
d="M140 0h-58v552h58v-552zM-2 617v102h64v-102h-64zM156 617v102h64v-102h-64z" />
    <glyph glyph-name="eth" unicode="&#xf0;" 
d="M88 662l75 52q-17 20 -69 63l36 31q25 -20 75 -66l73 51l24 -28l-74 -51q89 -96 128.5 -198.5t39.5 -235.5v-11q0 -283 -174 -283q-35 0 -63 10.5t-46 26.5t-31 42.5t-19.5 49.5t-10 58.5t-4 58t-0.5 57.5q0 277 174 277q34 0 58 -14l2 2q-31 62 -94 132l-75 -52z
M106 288q0 -36 0.5 -57t3.5 -55t10.5 -54.5t19.5 -42.5t32.5 -32t47.5 -10q28 0 49 11t33.5 33.5t20.5 43.5t11 53.5t3.5 51t0.5 47.5t-1 48t-4 51t-11 53t-20.5 42.5t-34 32.5t-50.5 11q-111 0 -111 -227z" />
    <glyph glyph-name="ntilde" unicode="&#xf1;" 
d="M123 407v-407h-58v552h58v-54h2q46 68 125 68q55 0 92 -35t37 -93v-438h-58v401q0 22 -1 36.5t-5.5 30.5t-13 25.5t-24 15.5t-37.5 6q-45 0 -81 -31.5t-36 -76.5zM328 627q-41 -12 -104 19q-60 26 -83 20q-3 -1 -6 -3t-5 -3.5t-4.5 -4.5t-4 -4t-3.5 -5l-2.5 -5t-2.5 -5.5
t-2.5 -5.5t-2.5 -6t-2 -6h-37q6 41 30 69t60 28q23 0 66.5 -19t54.5 -22q32 -8 45 3.5t20 42.5h38q-8 -70 -55 -93z" />
    <glyph glyph-name="ograve" unicode="&#xf2;" 
d="M221 -14q-35 0 -62.5 10.5t-45 26.5t-30.5 42.5t-19.5 50t-10 58.5t-4 57.5t-0.5 57.5q0 277 175 277q44 0 77 -19t50.5 -47t28 -69t13.5 -75.5t3 -77.5q0 -57 -5.5 -100t-22 -91t-54 -74.5t-93.5 -26.5zM220 37q28 0 49 11t33.5 33.5t20.5 43.5t11 53.5t3.5 51t0.5 47.5
t-1 48t-4 51t-11 53t-20.5 42.5t-34 32.5t-50.5 11q-110 0 -110 -227v-11q0 -31 0.5 -48.5t3 -50.5t10 -54t19.5 -43t32.5 -33t47.5 -11zM282 606h-51l-138 139h78z" />
    <glyph glyph-name="oacute" unicode="&#xf3;" 
d="M221 -14q-35 0 -62.5 10.5t-45 26.5t-30.5 42.5t-19.5 50t-10 58.5t-4 57.5t-0.5 57.5q0 277 175 277q44 0 77 -19t50.5 -47t28 -69t13.5 -75.5t3 -77.5q0 -57 -5.5 -100t-22 -91t-54 -74.5t-93.5 -26.5zM220 37q28 0 49 11t33.5 33.5t20.5 43.5t11 53.5t3.5 51t0.5 47.5
t-1 48t-4 51t-11 53t-20.5 42.5t-34 32.5t-50.5 11q-110 0 -110 -227v-11q0 -31 0.5 -48.5t3 -50.5t10 -54t19.5 -43t32.5 -33t47.5 -11zM233 606h-51l111 139h78z" />
    <glyph glyph-name="ocircumflex" unicode="&#xf4;" 
d="M221 -14q-35 0 -62.5 10.5t-45 26.5t-30.5 42.5t-19.5 50t-10 58.5t-4 57.5t-0.5 57.5q0 277 175 277q44 0 77 -19t50.5 -47t28 -69t13.5 -75.5t3 -77.5q0 -57 -5.5 -100t-22 -91t-54 -74.5t-93.5 -26.5zM220 37q28 0 49 11t33.5 33.5t20.5 43.5t11 53.5t3.5 51t0.5 47.5
t-1 48t-4 51t-11 53t-20.5 42.5t-34 32.5t-50.5 11q-110 0 -110 -227v-11q0 -31 0.5 -48.5t3 -50.5t10 -54t19.5 -43t32.5 -33t47.5 -11zM304 605l-82 101l-83 -101h-64l113 139h67l114 -139h-65z" />
    <glyph glyph-name="otilde" unicode="&#xf5;" 
d="M221 -14q-35 0 -62.5 10.5t-45 26.5t-30.5 42.5t-19.5 50t-10 58.5t-4 57.5t-0.5 57.5q0 277 175 277q44 0 77 -19t50.5 -47t28 -69t13.5 -75.5t3 -77.5q0 -57 -5.5 -100t-22 -91t-54 -74.5t-93.5 -26.5zM220 37q28 0 49 11t33.5 33.5t20.5 43.5t11 53.5t3.5 51t0.5 47.5
t-1 48t-4 51t-11 53t-20.5 42.5t-34 32.5t-50.5 11q-110 0 -110 -227v-11q0 -31 0.5 -48.5t3 -50.5t10 -54t19.5 -43t32.5 -33t47.5 -11zM327 627q-41 -12 -104 19q-60 26 -83 20q-3 -1 -6 -3t-5 -3.5t-4.5 -4.5t-4 -4t-3.5 -5l-2.5 -5t-2.5 -5.5t-2.5 -5.5t-2.5 -6t-2 -6
h-37q6 41 30 69t60 28q23 0 66.5 -19t54.5 -22q32 -8 45 3.5t20 42.5h38q-8 -70 -55 -93z" />
    <glyph glyph-name="odieresis" unicode="&#xf6;" 
d="M221 -14q-35 0 -62.5 10.5t-45 26.5t-30.5 42.5t-19.5 50t-10 58.5t-4 57.5t-0.5 57.5q0 277 175 277q44 0 77 -19t50.5 -47t28 -69t13.5 -75.5t3 -77.5q0 -57 -5.5 -100t-22 -91t-54 -74.5t-93.5 -26.5zM220 37q28 0 49 11t33.5 33.5t20.5 43.5t11 53.5t3.5 51t0.5 47.5
t-1 48t-4 51t-11 53t-20.5 42.5t-34 32.5t-50.5 11q-110 0 -110 -227v-11q0 -31 0.5 -48.5t3 -50.5t10 -54t19.5 -43t32.5 -33t47.5 -11zM112 617v102h64v-102h-64zM270 617v102h64v-102h-64z" />
    <glyph glyph-name="divide" unicode="&#xf7;" 
d="M21 271h403v-51h-403v51zM191 389v102h64v-102h-64zM191 0v102h64v-102h-64z" />
    <glyph glyph-name="oslash" unicode="&#xf8;" 
d="M92 50l-61 -92l-34 24l74 112q-22 61 -22 195q0 277 175 277q77 0 121 -57l45 69l39 -21l-61 -91q28 -66 28 -188q0 -57 -5.5 -100t-22 -91t-54 -74.5t-93.5 -26.5q-89 0 -129 64zM328 405l-200 -301q27 -67 92 -67q28 0 49 11t33.5 33.5t20.5 43.5t11 53.5t3.5 51
t0.5 47.5q0 84 -10 128zM310 457q-29 58 -93 58q-110 0 -110 -227q0 -88 7 -129z" />
    <glyph glyph-name="ugrave" unicode="&#xf9;" 
d="M321 132v420h58v-552h-56v51q-51 -65 -141 -65q-70 0 -96 42t-26 116v408h58v-418q0 -53 22.5 -77t74.5 -20q33 1 62.5 29t43.5 66zM279 606h-51l-138 139h78z" />
    <glyph glyph-name="uacute" unicode="&#xfa;" 
d="M321 132v420h58v-552h-56v51q-51 -65 -141 -65q-70 0 -96 42t-26 116v408h58v-418q0 -53 22.5 -77t74.5 -20q33 1 62.5 29t43.5 66zM229 606h-51l111 139h78z" />
    <glyph glyph-name="ucircumflex" unicode="&#xfb;" 
d="M321 132v420h58v-552h-56v51q-51 -65 -141 -65q-70 0 -96 42t-26 116v408h58v-418q0 -53 22.5 -77t74.5 -20q33 1 62.5 29t43.5 66zM302 605l-82 101l-83 -101h-64l113 139h67l114 -139h-65z" />
    <glyph glyph-name="udieresis" unicode="&#xfc;" 
d="M321 132v420h58v-552h-56v51q-51 -65 -141 -65q-70 0 -96 42t-26 116v408h58v-418q0 -53 22.5 -77t74.5 -20q33 1 62.5 29t43.5 66zM112 617v102h64v-102h-64zM270 617v102h64v-102h-64z" />
    <glyph glyph-name="yacute" unicode="&#xfd;" horiz-adv-x="389" 
d="M28 -188v51q19 0 37.5 -1t36 8t26.5 27q18 41 32 101l-143 554h61l114 -447h2l120 447h59l-150 -545l-5 -20t-6 -23t-6.5 -22.5t-7.5 -24t-8.5 -22.5t-11 -22.5t-12 -19t-14 -17.5t-16.5 -13q-18 -10 -37 -13t-43.5 -0.5t-27.5 2.5zM208 606h-51l111 139h78z" />
    <glyph glyph-name="thorn" unicode="&#xfe;" 
d="M226 515q-26 0 -46 -11.5t-31.5 -34.5t-18.5 -44.5t-10 -54t-3.5 -50t-0.5 -44.5t0.5 -44.5t3.5 -50t10 -54t18.5 -44.5t31.5 -34.5t46 -11.5t46 11.5t31.5 34.5t18.5 44.5t10 54t3.5 50t0.5 44.5t-0.5 44.5t-3.5 50t-10 54t-18.5 44.5t-31.5 34.5t-46 11.5zM58 -190v940
h58v-248h2q42 64 110 64q43 0 75 -18t49 -44.5t27 -66t12.5 -72.5t2.5 -75q0 -38 -1.5 -65t-6 -66t-15.5 -66.5t-28 -53.5t-45 -39.5t-65 -13.5q-73 0 -115 59h-2v-235h-58z" />
    <glyph glyph-name="ydieresis" unicode="&#xff;" horiz-adv-x="389" 
d="M28 -188v51q19 0 37.5 -1t36 8t26.5 27q18 41 32 101l-143 554h61l114 -447h2l120 447h59l-150 -545l-5 -20t-6 -23t-6.5 -22.5t-7.5 -24t-8.5 -22.5t-11 -22.5t-12 -19t-14 -17.5t-16.5 -13q-18 -10 -37 -13t-43.5 -0.5t-27.5 2.5zM84 617v102h64v-102h-64zM242 617v102
h64v-102h-64z" />
    <glyph glyph-name="Amacron" unicode="&#x100;" horiz-adv-x="500" 
d="M150 289h200l-99 379h-2zM213 750h75l201 -750h-66l-59 231h-228l-61 -231h-63zM102 842h296v-45h-296v45z" />
    <glyph glyph-name="amacron" unicode="&#x101;" horiz-adv-x="389" 
d="M271 201v97q-20 -11 -115 -51q-44 -19 -58 -42t-14 -72q0 -96 77 -96q54 0 82 41t28 123zM97 413h-56q-2 73 36.5 113t110.5 40q80 0 114 -42q27 -35 27 -108v-339q0 -25 7 -31.5t33 -5.5v-42q-26 -10 -64 -3q-6 2 -11 5.5t-7.5 6t-4.5 8t-3 8t-2.5 11t-2.5 11.5h-1
q-43 -59 -122 -59q-70 0 -97.5 41.5t-27.5 114.5q0 103 76 142q25 11 75.5 30.5t75.5 31.5q13 6 15 22q7 40 -2 92q-13 55 -79 55q-15 0 -27 -2.5t-20.5 -6t-15 -11t-10 -12.5t-7 -16.5t-4.5 -16.5t-3 -18.5t-3 -18.5zM46 690h296v-45h-296v45z" />
    <glyph glyph-name="Abreve" unicode="&#x102;" horiz-adv-x="500" 
d="M150 289h200l-99 379h-2zM213 750h75l201 -750h-66l-59 231h-228l-61 -231h-63zM105 909h40q7 -38 35.5 -57.5t69.5 -19.5t69.5 19.5t36.5 57.5h37q-6 -58 -46 -89t-102 -31q-59 0 -96.5 32t-43.5 88z" />
    <glyph glyph-name="abreve" unicode="&#x103;" horiz-adv-x="389" 
d="M271 201v97q-20 -11 -115 -51q-44 -19 -58 -42t-14 -72q0 -96 77 -96q54 0 82 41t28 123zM97 413h-56q-2 73 36.5 113t110.5 40q80 0 114 -42q27 -35 27 -108v-339q0 -25 7 -31.5t33 -5.5v-42q-26 -10 -64 -3q-6 2 -11 5.5t-7.5 6t-4.5 8t-3 8t-2.5 11t-2.5 11.5h-1
q-43 -59 -122 -59q-70 0 -97.5 41.5t-27.5 114.5q0 103 76 142q25 11 75.5 30.5t75.5 31.5q13 6 15 22q7 40 -2 92q-13 55 -79 55q-15 0 -27 -2.5t-20.5 -6t-15 -11t-10 -12.5t-7 -16.5t-4.5 -16.5t-3 -18.5t-3 -18.5zM51 738h40q7 -39 35.5 -60t69.5 -21t69.5 21t36.5 60
h37q-6 -61 -46 -93.5t-102 -32.5q-59 0 -96.5 33.5t-43.5 92.5z" />
    <glyph glyph-name="Aogonek" unicode="&#x104;" horiz-adv-x="500" 
d="M489 -168q-21 -8 -56 -8q-37 0 -59 25.5t-22 58.5q0 35 18 55.5t53 36.5l-59 231h-228l-61 -231h-63l201 750h75l201 -750q-87 -31 -87 -81q0 -14 14 -27t26 -13q28 0 47 9v-56zM150 289h200l-99 379h-2z" />
    <glyph glyph-name="aogonek" unicode="&#x105;" horiz-adv-x="389" 
d="M369 -168q-21 -8 -56 -8q-37 0 -59 25.5t-22 58.5q0 59 66 90q-4 2 -7 4.5t-5 5.5t-3.5 5t-3 6.5t-2 7t-1.5 9t-2 9.5h-1q-43 -59 -122 -59q-70 0 -97.5 41.5t-27.5 114.5q0 103 76 142q25 11 75.5 30.5t75.5 31.5q13 6 15 22q7 40 -2 92q-13 55 -79 55q-15 0 -27 -2.5
t-20.5 -6t-15 -11t-10 -12.5t-7 -16.5t-4.5 -16.5t-3 -18.5t-3 -18.5h-56q-2 73 36.5 113t110.5 40q80 0 114 -42q27 -35 27 -108v-339q0 -25 7 -31.5t33 -5.5v-42q-26 -10 -64 -3q-3 1 -7 3q4 2 5 2h66q-87 -31 -87 -81q0 -14 14 -27t26 -13q28 0 47 9v-56zM271 201v97
q-20 -11 -115 -51q-44 -19 -58 -42t-14 -72q0 -96 77 -96q54 0 82 41t28 123z" />
    <glyph glyph-name="Cacute" unicode="&#x106;" horiz-adv-x="556" 
d="M427 254h65q1 -50 -11 -97t-37 -87t-67.5 -64t-96.5 -24q-45 0 -80.5 15.5t-57.5 37.5t-38 61t-24 69.5t-12 80t-4.5 76.5t-0.5 74q0 55 3.5 99t16.5 97.5t35.5 89.5t64.5 61t99 25q97 0 150 -66.5t54 -167.5h-65q-5 77 -38 126.5t-103 49.5q-32 0 -56.5 -13t-40.5 -31
t-27 -49t-16.5 -55t-8 -62t-3 -56.5t-0.5 -51.5v-11q0 -148 17 -213q35 -128 142 -128q40 0 68.5 19.5t43 53.5t21 68t7.5 73zM286 792h-51l102 112h78z" />
    <glyph glyph-name="cacute" unicode="&#x107;" horiz-adv-x="389" 
d="M300 183h58q1 -86 -35.5 -141.5t-117.5 -55.5q-34 0 -60.5 10t-44 25.5t-30 41t-18.5 48.5t-10 56t-4.5 56t-0.5 56q0 35 2 63t7 63.5t16.5 62t29 50t46 36t65.5 12.5q71 0 111 -52t39 -125h-57q-2 54 -27 90.5t-70 35.5q-22 -1 -39 -10t-27.5 -21.5t-18 -35t-11.5 -39.5
t-6 -45.5t-2 -42.5v-41v-11q0 -30 0.5 -45t3 -48.5t9.5 -52.5t18.5 -41.5t32 -33.5t47.5 -11q23 0 40 10t26 22t15.5 36t8 37.5zM211 606h-51l111 139h78z" />
    <glyph glyph-name="Ccaron" unicode="&#x10c;" horiz-adv-x="556" 
d="M427 254h65q1 -50 -11 -97t-37 -87t-67.5 -64t-96.5 -24q-45 0 -80.5 15.5t-57.5 37.5t-38 61t-24 69.5t-12 80t-4.5 76.5t-0.5 74q0 55 3.5 99t16.5 97.5t35.5 89.5t64.5 61t99 25q97 0 150 -66.5t54 -167.5h-65q-5 77 -38 126.5t-103 49.5q-32 0 -56.5 -13t-40.5 -31
t-27 -49t-16.5 -55t-8 -62t-3 -56.5t-0.5 -51.5v-11q0 -148 17 -213q35 -128 142 -128q40 0 68.5 19.5t43 53.5t21 68t7.5 73zM284 830l82 74h65l-114 -112h-67l-113 112h64z" />
    <glyph glyph-name="ccaron" unicode="&#x10d;" horiz-adv-x="389" 
d="M300 183h58q1 -86 -35.5 -141.5t-117.5 -55.5q-34 0 -60.5 10t-44 25.5t-30 41t-18.5 48.5t-10 56t-4.5 56t-0.5 56q0 35 2 63t7 63.5t16.5 62t29 50t46 36t65.5 12.5q71 0 111 -52t39 -125h-57q-2 54 -27 90.5t-70 35.5q-22 -1 -39 -10t-27.5 -21.5t-18 -35t-11.5 -39.5
t-6 -45.5t-2 -42.5v-41v-11q0 -30 0.5 -45t3 -48.5t9.5 -52.5t18.5 -41.5t32 -33.5t47.5 -11q23 0 40 10t26 22t15.5 36t8 37.5zM201 644l82 101h65l-114 -139h-67l-113 139h64z" />
    <glyph glyph-name="Dcaron" unicode="&#x10e;" horiz-adv-x="556" 
d="M137 692v-634h78q81 0 115 16q105 48 105 302q0 43 -0.5 64t-5.5 65t-14 70.5t-29 55.5t-48 44q-40 22 -145 17h-56zM72 0v750h134q78 0 129.5 -13t92.5 -58q35 -42 53.5 -113t18.5 -134q0 -68 -0.5 -97.5t-7.5 -87t-21 -94.5q-32 -91 -90.5 -122t-161.5 -31h-147z
M230 830l82 74h65l-114 -112h-67l-113 112h64z" />
    <glyph glyph-name="dcaron" unicode="&#x10f;" horiz-adv-x="464" 
d="M213 515q-26 0 -46 -12.5t-31.5 -36t-19 -46.5t-10.5 -56t-3.5 -51.5t-0.5 -45.5q0 -230 114 -230q20 0 36.5 7t27 19.5t19 29.5t13 36t7.5 39.5t3.5 41t1.5 39.5t0 34v6v5.5v5.5q0 215 -111 215zM324 507v243h58v-750h-58v52h-2q-34 -66 -119 -66q-43 0 -74 20.5
t-47 49.5t-25 72.5t-11 75.5t-2 74q0 288 161 288q71 0 117 -59h2zM424 570v29q32 12 32 69v11h-32v71h66v-46q0 -37 -2 -56q-4 -36 -18 -53.5t-46 -24.5z" />
    <glyph glyph-name="Dcroat" unicode="&#x110;" horiz-adv-x="556" 
d="M137 692v-238h136v-54h-136v-342h78q81 0 115 16q105 49 105 302q0 123 -19.5 195.5t-77.5 103.5q-32 17 -145 17h-56zM72 0v400h-72v54h72v296h134q78 0 129.5 -13t92.5 -58q33 -35 52.5 -109.5t19.5 -137.5q0 -68 -0.5 -97.5t-7.5 -87t-21 -94.5q-35 -91 -92.5 -122
t-159.5 -31h-147z" />
    <glyph glyph-name="dcroat" unicode="&#x111;" 
d="M434 641h-52v-641h-58v52h-2q-34 -66 -119 -66q-43 0 -74 20.5t-47 49.5t-25 72.5t-11 75.5t-2 74q0 288 161 288q71 0 117 -59h2v134h-143v54h143v55h58v-55h52v-54zM213 515q-26 0 -46 -12.5t-31.5 -36t-19 -46.5t-10.5 -56t-3.5 -51.5t-0.5 -45.5q0 -230 114 -230
q20 0 36.5 7t27 19.5t19 29.5t13 36t7.5 39.5t3.5 41t1.5 39.5t0 34v6v5.5v5.5q0 215 -111 215z" />
    <glyph glyph-name="Emacron" unicode="&#x112;" 
d="M412 0h-345v750h340v-58h-275v-270h250v-58h-250v-306h280v-58zM94 842h296v-45h-296v45z" />
    <glyph glyph-name="emacron" unicode="&#x113;" horiz-adv-x="389" 
d="M352 335v-56h-259v-16q0 -34 0.5 -54.5t5.5 -57.5t15 -58.5t31.5 -38.5t51.5 -17q29 0 48.5 12t29 36t13.5 44t6 51h56q0 -84 -37.5 -139t-116.5 -55q-37 0 -65 12.5t-45 37.5t-28 50.5t-15.5 62.5t-6 63t-1.5 62q0 35 1.5 61t6 63.5t15 64t27.5 52t44.5 38.5t64.5 13
q46 0 78.5 -20.5t49 -56t23.5 -73.5t7 -81zM93 330h201q0 185 -101 185q-100 0 -100 -185zM46 690h296v-45h-296v45z" />
    <glyph glyph-name="Edotaccent" unicode="&#x116;" 
d="M412 0h-345v750h340v-58h-275v-270h250v-58h-250v-306h280v-58zM219 792v102h64v-102h-64z" />
    <glyph glyph-name="edotaccent" unicode="&#x117;" horiz-adv-x="389" 
d="M352 335v-56h-259v-16q0 -34 0.5 -54.5t5.5 -57.5t15 -58.5t31.5 -38.5t51.5 -17q29 0 48.5 12t29 36t13.5 44t6 51h56q0 -84 -37.5 -139t-116.5 -55q-37 0 -65 12.5t-45 37.5t-28 50.5t-15.5 62.5t-6 63t-1.5 62q0 35 1.5 61t6 63.5t15 64t27.5 52t44.5 38.5t64.5 13
q46 0 78.5 -20.5t49 -56t23.5 -73.5t7 -81zM93 330h201q0 185 -101 185q-100 0 -100 -185zM165 617v102h64v-102h-64z" />
    <glyph glyph-name="Eogonek" unicode="&#x118;" 
d="M393 -168q-21 -8 -56 -8q-37 0 -59 25.5t-22 58.5q0 35 18 55.5t53 36.5h-260v750h340v-58h-275v-270h250v-58h-250v-306h280v-58h-19q-87 -31 -87 -81q0 -14 14 -27t26 -13q28 0 47 9v-56z" />
    <glyph glyph-name="eogonek" unicode="&#x119;" horiz-adv-x="389" 
d="M264 -168q-21 -8 -56 -8q-37 0 -59 25.5t-22 58.5q0 51 47 80q-38 4 -65.5 26t-41 49t-21.5 68.5t-9.5 71t-1.5 71.5q0 35 1.5 61t6 63.5t15 64t27.5 52t44.5 38.5t64.5 13q46 0 78.5 -20.5t49 -56t23.5 -73.5t7 -81v-56h-259v-16q0 -34 0.5 -54.5t5.5 -57.5t15 -58.5
t31.5 -38.5t51.5 -17q29 0 48.5 12t29 36t13.5 44t6 51h56q0 -139 -87 -180h1h-2l-15 -6q-70 -30 -70 -75q0 -14 14 -27t26 -13q28 0 47 9v-56zM93 330h201q0 185 -101 185q-100 0 -100 -185z" />
    <glyph glyph-name="Ecaron" unicode="&#x11a;" 
d="M412 0h-345v750h340v-58h-275v-270h250v-58h-250v-306h280v-58zM249 830l82 74h65l-114 -112h-67l-113 112h64z" />
    <glyph glyph-name="ecaron" unicode="&#x11b;" horiz-adv-x="389" 
d="M352 335v-56h-259v-16q0 -34 0.5 -54.5t5.5 -57.5t15 -58.5t31.5 -38.5t51.5 -17q29 0 48.5 12t29 36t13.5 44t6 51h56q0 -84 -37.5 -139t-116.5 -55q-37 0 -65 12.5t-45 37.5t-28 50.5t-15.5 62.5t-6 63t-1.5 62q0 35 1.5 61t6 63.5t15 64t27.5 52t44.5 38.5t64.5 13
q46 0 78.5 -20.5t49 -56t23.5 -73.5t7 -81zM93 330h201q0 185 -101 185q-100 0 -100 -185zM200 644l82 101h65l-114 -139h-67l-113 139h64z" />
    <glyph glyph-name="Gbreve" unicode="&#x11e;" horiz-adv-x="556" 
d="M418 314h-161v58h226v-372h-52l-7 77q-56 -95 -164 -95q-44 0 -78.5 15.5t-56.5 38t-38 60t-23.5 69t-12 79t-5 75.5t-0.5 71q0 49 2 84.5t8.5 84t21.5 81.5t38.5 64.5t62.5 47.5t90 16q91 0 147 -64.5t56 -158.5h-62q-22 165 -139 165q-46 0 -78 -25t-47.5 -56.5
t-24 -84.5t-9.5 -82t-1 -77v-10q0 -31 0.5 -52t3.5 -59t8.5 -65t17 -59t27.5 -52t41 -34t56 -14q29 0 52.5 10t39 24.5t27 40t17.5 46t10 53t5 51t2 49.5zM120 909h40q7 -38 35.5 -57.5t69.5 -19.5t69.5 19.5t36.5 57.5h37q-6 -58 -46 -89t-102 -31q-59 0 -96.5 32t-43.5 88
z" />
    <glyph glyph-name="gbreve" unicode="&#x11f;" 
d="M209 515q-105 0 -105 -245q0 -27 1 -45t3.5 -49t10.5 -52.5t19.5 -43t31.5 -32.5t47 -11q30 0 51.5 17.5t32 40t16 58.5t6.5 57t1 52v20q0 32 -0.5 50t-3 50t-10 51.5t-19.5 40.5t-33 31t-49 10zM324 502v50h58v-540q0 -97 -39 -149t-132 -52q-64 0 -107 31.5t-46 93.5
h59q2 -35 29.5 -53.5t65.5 -20.5q22 0 39 5t28.5 11t20 20t12.5 23t7 29t3.5 28.5t1 31.5t0.5 29h-4q-41 -53 -116 -53q-31 0 -56 10t-41 25.5t-28 40.5t-18 47.5t-9.5 54t-4.5 54t-1 52.5q0 35 1 59.5t5.5 63t14.5 65.5t26 53.5t43.5 40.5t63.5 14q78 0 122 -64h2zM80 738
h40q7 -39 35.5 -60t69.5 -21t69.5 21t36.5 60h37q-6 -61 -46 -93.5t-102 -32.5q-59 0 -96.5 33.5t-43.5 92.5z" />
    <glyph glyph-name="Gcommaaccent" unicode="&#x122;" horiz-adv-x="556" 
d="M418 314h-161v58h226v-372h-52l-7 77q-56 -95 -164 -95q-44 0 -78.5 15.5t-56.5 38t-38 60t-23.5 69t-12 79t-5 75.5t-0.5 71q0 49 2 84.5t8.5 84t21.5 81.5t38.5 64.5t62.5 47.5t90 16q91 0 147 -64.5t56 -158.5h-62q-22 165 -139 165q-46 0 -78 -25t-47.5 -56.5
t-24 -84.5t-9.5 -82t-1 -77v-10q0 -31 0.5 -52t3.5 -59t8.5 -65t17 -59t27.5 -52t41 -34t56 -14q29 0 52.5 10t39 24.5t27 40t17.5 46t10 53t5 51t2 49.5zM242 -223v29q32 12 32 69v11h-32v71h66v-46q0 -37 -2 -56q-4 -36 -18 -53.5t-46 -24.5z" />
    <glyph glyph-name="gcommaaccent" unicode="&#x123;" 
d="M209 515q-105 0 -105 -245q0 -27 1 -45t3.5 -49t10.5 -52.5t19.5 -43t31.5 -32.5t47 -11q30 0 51.5 17.5t32 40t16 58.5t6.5 57t1 52v20q0 32 -0.5 50t-3 50t-10 51.5t-19.5 40.5t-33 31t-49 10zM324 502v50h58v-540q0 -97 -39 -149t-132 -52q-64 0 -107 31.5t-46 93.5
h59q2 -35 29.5 -53.5t65.5 -20.5q22 0 39 5t28.5 11t20 20t12.5 23t7 29t3.5 28.5t1 31.5t0.5 29h-4q-41 -53 -116 -53q-31 0 -56 10t-41 25.5t-28 40.5t-18 47.5t-9.5 54t-4.5 54t-1 52.5q0 35 1 59.5t5.5 63t14.5 65.5t26 53.5t43.5 40.5t63.5 14q78 0 122 -64h2zM255 786
v-29q-32 -12 -32 -69v-11h32v-71h-66v46q0 37 2 56q4 36 18 53.5t46 24.5z" />
    <glyph glyph-name="Imacron" unicode="&#x12a;" horiz-adv-x="222" 
d="M144 0h-65v750h65v-750zM-35 842h296v-45h-296v45z" />
    <glyph glyph-name="imacron" unicode="&#x12b;" horiz-adv-x="222" 
d="M-36 690h296v-45h-296v45zM140 0h-58v552h58v-552z" />
    <glyph glyph-name="Iogonek" unicode="&#x12e;" horiz-adv-x="222" 
d="M154 -163q-21 -8 -56 -8q-37 0 -59 25.5t-22 58.5q0 59 62 87v750h65v-750h-4q-73 -30 -73 -76q0 -14 14 -27t26 -13q28 0 47 9v-56z" />
    <glyph glyph-name="iogonek" unicode="&#x12f;" horiz-adv-x="222" 
d="M150 -163q-21 -8 -56 -8q-37 0 -59 25.5t-22 58.5q0 35 17.5 55t51.5 36v548h58v-552h-4q-73 -30 -73 -76q0 -14 14 -27t26 -13q28 0 47 9v-56zM145 655h-67v95h67v-95z" />
    <glyph glyph-name="Idotaccent" unicode="&#x130;" horiz-adv-x="222" 
d="M144 0h-65v750h65v-750zM78 792v102h64v-102h-64z" />
    <glyph glyph-name="dotlessi" unicode="&#x131;" horiz-adv-x="222" 
d="M140 0h-58v552h58v-552z" />
    <glyph glyph-name="Kcommaaccent" unicode="&#x136;" horiz-adv-x="500" 
d="M132 0h-65v750h65v-375l273 375h75l-222 -303l233 -447h-70l-205 394l-84 -110v-284zM222 -223v29q32 12 32 69v11h-32v71h66v-46q0 -37 -2 -56q-4 -36 -18 -53.5t-46 -24.5z" />
    <glyph glyph-name="kcommaaccent" unicode="&#x137;" horiz-adv-x="389" 
d="M120 0h-58v750h58v-458l179 260h73l-150 -206l153 -346h-61l-133 287l-61 -85v-202zM174 -223v29q32 12 32 69v11h-32v71h66v-46q0 -37 -2 -56q-4 -36 -18 -53.5t-46 -24.5z" />
    <glyph glyph-name="Lacute" unicode="&#x139;" 
d="M417 0h-343v750h65v-692h278v-58zM147 792h-51l102 112h78z" />
    <glyph glyph-name="lacute" unicode="&#x13a;" horiz-adv-x="222" 
d="M140 0h-58v750h58v-750zM161 792h-51l102 112h78z" />
    <glyph glyph-name="Lcommaaccent" unicode="&#x13b;" 
d="M417 0h-343v750h65v-692h278v-58zM210 -223v29q32 12 32 69v11h-32v71h66v-46q0 -37 -2 -56q-4 -36 -18 -53.5t-46 -24.5z" />
    <glyph glyph-name="lcommaaccent" unicode="&#x13c;" horiz-adv-x="222" 
d="M140 0h-58v750h58v-750zM79 -223v29q32 12 32 69v11h-32v71h66v-46q0 -37 -2 -56q-4 -36 -18 -53.5t-46 -24.5z" />
    <glyph glyph-name="Lcaron" unicode="&#x13d;" 
d="M417 0h-343v750h65v-692h278v-58zM189 570v29q32 12 32 69v11h-32v71h66v-46q0 -37 -2 -56q-4 -36 -18 -53.5t-46 -24.5z" />
    <glyph glyph-name="lcaron" unicode="&#x13e;" horiz-adv-x="242" 
d="M140 0h-58v750h58v-750zM184 570v29q32 12 32 69v11h-32v71h66v-46q0 -37 -2 -56q-4 -36 -18 -53.5t-46 -24.5z" />
    <glyph glyph-name="Lslash" unicode="&#x141;" 
d="M417 0h-343v255l-87 -44v62l87 44v433h65v-400l79 40v-62l-79 -40v-230h278v-58z" />
    <glyph glyph-name="lslash" unicode="&#x142;" horiz-adv-x="222" 
d="M140 750v-174l73 46v-60l-73 -46v-516h-58v480l-76 -48v60l76 48v210h58z" />
    <glyph glyph-name="Nacute" unicode="&#x143;" horiz-adv-x="556" 
d="M147 750l276 -644h2v644h65v-750h-79l-278 642h-2v-642h-65v750h81zM287 792h-51l102 112h78z" />
    <glyph glyph-name="nacute" unicode="&#x144;" 
d="M123 407v-407h-58v552h58v-54h2q46 68 125 68q55 0 92 -35t37 -93v-438h-58v401q0 22 -1 36.5t-5.5 30.5t-13 25.5t-24 15.5t-37.5 6q-45 0 -81 -31.5t-36 -76.5zM233 606h-51l111 139h78z" />
    <glyph glyph-name="Ncommaaccent" unicode="&#x145;" horiz-adv-x="556" 
d="M147 750l276 -644h2v644h65v-750h-79l-278 642h-2v-642h-65v750h81zM244 -223v29q32 12 32 69v11h-32v71h66v-46q0 -37 -2 -56q-4 -36 -18 -53.5t-46 -24.5z" />
    <glyph glyph-name="ncommaaccent" unicode="&#x146;" 
d="M123 407v-407h-58v552h58v-54h2q46 68 125 68q55 0 92 -35t37 -93v-438h-58v401q0 22 -1 36.5t-5.5 30.5t-13 25.5t-24 15.5t-37.5 6q-45 0 -81 -31.5t-36 -76.5zM191 -223v29q32 12 32 69v11h-32v71h66v-46q0 -37 -2 -56q-4 -36 -18 -53.5t-46 -24.5z" />
    <glyph glyph-name="Ncaron" unicode="&#x147;" horiz-adv-x="556" 
d="M147 750l276 -644h2v644h65v-750h-79l-278 642h-2v-642h-65v750h81zM281 830l82 74h65l-114 -112h-67l-113 112h64z" />
    <glyph glyph-name="ncaron" unicode="&#x148;" 
d="M123 407v-407h-58v552h58v-54h2q46 68 125 68q55 0 92 -35t37 -93v-438h-58v401q0 22 -1 36.5t-5.5 30.5t-13 25.5t-24 15.5t-37.5 6q-45 0 -81 -31.5t-36 -76.5zM227 644l82 101h65l-114 -139h-67l-113 139h64z" />
    <glyph glyph-name="Omacron" unicode="&#x14c;" horiz-adv-x="556" 
d="M276 -18q-35 0 -64.5 9.5t-50.5 24t-38 39t-27.5 47t-18 57t-11 59t-5.5 62.5t-2.5 59t-0.5 57q0 55 3.5 99t17 97.5t36 89.5t64.5 61t99 25q46 0 81.5 -15t58.5 -36.5t39 -59t24 -68t12.5 -79.5t5 -76.5t0.5 -74.5q0 -42 -1 -73t-6 -72.5t-14 -71.5t-25.5 -62t-39.5 -52
t-58 -33t-79 -13zM282 40q32 0 56.5 13t40.5 31t27 49.5t16.5 55.5t8 62.5t3 58t0.5 53.5v11q0 35 -0.5 54.5t-3.5 59.5t-8.5 65.5t-17 58t-28 52t-42.5 33t-59 13.5q-31 0 -56 -13.5t-40.5 -32.5t-26.5 -50.5t-16.5 -57t-8.5 -63.5t-3.5 -59t-0.5 -53q0 -148 17 -213
q35 -128 142 -128zM133 842h296v-45h-296v45z" />
    <glyph glyph-name="omacron" unicode="&#x14d;" 
d="M221 -14q-35 0 -62.5 10.5t-45 26.5t-30.5 42.5t-19.5 50t-10 58.5t-4 57.5t-0.5 57.5q0 277 175 277q44 0 77 -19t50.5 -47t28 -69t13.5 -75.5t3 -77.5q0 -57 -5.5 -100t-22 -91t-54 -74.5t-93.5 -26.5zM220 37q28 0 49 11t33.5 33.5t20.5 43.5t11 53.5t3.5 51t0.5 47.5
t-1 48t-4 51t-11 53t-20.5 42.5t-34 32.5t-50.5 11q-110 0 -110 -227v-11q0 -31 0.5 -48.5t3 -50.5t10 -54t19.5 -43t32.5 -33t47.5 -11zM73 690h296v-45h-296v45z" />
    <glyph glyph-name="Ohungarumlaut" unicode="&#x150;" horiz-adv-x="556" 
d="M276 -18q-35 0 -64.5 9.5t-50.5 24t-38 39t-27.5 47t-18 57t-11 59t-5.5 62.5t-2.5 59t-0.5 57q0 55 3.5 99t17 97.5t36 89.5t64.5 61t99 25q46 0 81.5 -15t58.5 -36.5t39 -59t24 -68t12.5 -79.5t5 -76.5t0.5 -74.5q0 -42 -1 -73t-6 -72.5t-14 -71.5t-25.5 -62t-39.5 -52
t-58 -33t-79 -13zM282 40q32 0 56.5 13t40.5 31t27 49.5t16.5 55.5t8 62.5t3 58t0.5 53.5v11q0 35 -0.5 54.5t-3.5 59.5t-8.5 65.5t-17 58t-28 52t-42.5 33t-59 13.5q-31 0 -56 -13.5t-40.5 -32.5t-26.5 -50.5t-16.5 -57t-8.5 -63.5t-3.5 -59t-0.5 -53q0 -148 17 -213
q35 -128 142 -128zM375 792h-48l102 112h75zM215 792h-48l102 112h75z" />
    <glyph glyph-name="ohungarumlaut" unicode="&#x151;" 
d="M221 -14q-35 0 -62.5 10.5t-45 26.5t-30.5 42.5t-19.5 50t-10 58.5t-4 57.5t-0.5 57.5q0 277 175 277q44 0 77 -19t50.5 -47t28 -69t13.5 -75.5t3 -77.5q0 -57 -5.5 -100t-22 -91t-54 -74.5t-93.5 -26.5zM220 37q28 0 49 11t33.5 33.5t20.5 43.5t11 53.5t3.5 51t0.5 47.5
t-1 48t-4 51t-11 53t-20.5 42.5t-34 32.5t-50.5 11q-110 0 -110 -227v-11q0 -31 0.5 -48.5t3 -50.5t10 -54t19.5 -43t32.5 -33t47.5 -11zM154 606h-48l111 139h75zM313 606h-48l111 139h75z" />
    <glyph glyph-name="OE" unicode="&#x152;" horiz-adv-x="778" 
d="M267 40q28 0 49.5 13.5t35 31.5t23.5 50t14.5 55t7 62t2.5 55.5v48.5v8.5v6.5v15v52.5t-3 57.5t-8 62.5t-15.5 56t-25.5 50.5t-38.5 32t-53.5 13q-28 0 -50 -13t-35.5 -31.5t-23.5 -49.5t-14.5 -55t-7 -60.5t-3 -53.5t-0.5 -47q0 -135 6 -181q25 -178 140 -179zM399 0v81
h-2q-26 -57 -58 -78t-95 -21q-188 0 -188 396q0 42 0.5 69t4.5 72t11.5 75t22.5 66t35.5 57.5t53 36t73.5 14.5q99 0 140 -103h2v85h335v-58h-270v-276h247v-58h-247v-300h274v-58h-339z" />
    <glyph glyph-name="oe" unicode="&#x153;" horiz-adv-x="667" 
d="M625 335v-55h-257v-16q0 -30 0.5 -47t2.5 -48t9 -50.5t18 -40.5t30 -31t44 -10q89 0 96 141h56q-4 -192 -153 -192q-94 0 -133 87q-40 -87 -139 -87q-38 0 -67 12.5t-46 38t-27.5 50.5t-15 64.5t-5.5 64.5t-1 65q0 35 2 63.5t7.5 63.5t18 61.5t30.5 49.5t47 35t66 12
q94 0 131 -87q21 48 51.5 67.5t82.5 19.5q152 0 152 -231zM200 37q27 0 46.5 10.5t31 32.5t19 41.5t10 52.5t3 50t0.5 48v10v32.5t-1 35t-3.5 40.5t-7 36t-12.5 36.5t-18.5 26t-26.5 20.5t-36 6t-36.5 -7t-28 -19.5t-20 -29t-13 -35.5t-7.5 -39t-3.5 -40t-1.5 -39t0 -35v-17
q0 -217 105 -217zM370 331h197q0 39 -2.5 65t-11.5 56.5t-30.5 46t-54.5 16.5q-22 0 -38.5 -8t-26.5 -25t-16.5 -32.5t-10 -41.5t-4.5 -39.5t-2 -37.5z" />
    <glyph glyph-name="Racute" unicode="&#x154;" horiz-adv-x="500" 
d="M195 353h-67v-353h-65v750h145q112 0 171.5 -42.5t59.5 -149.5q0 -62 -27.5 -113t-82.5 -63v-2q60 -15 79.5 -58.5t20.5 -124.5q0 -5 0.5 -30.5t2 -46.5t4.5 -46t10 -42t17 -23v-9h-71q-10 22 -16 58.5t-8 66t-3.5 70t-2.5 51.5q-3 36 -16.5 58.5t-39 32.5t-49.5 13
t-62 3zM128 692v-281h114q10 0 22.5 1.5t33 10t36.5 22.5t28 42t12 66q0 79 -36 109t-116 30h-94zM224 792h-51l102 112h78z" />
    <glyph glyph-name="racute" unicode="&#x155;" horiz-adv-x="278" 
d="M124 552v-64h2q22 43 52 61t79 17v-61q-65 1 -97.5 -37t-32.5 -106v-362h-58v552h55zM179 606h-51l111 139h78z" />
    <glyph glyph-name="Rcommaaccent" unicode="&#x156;" horiz-adv-x="500" 
d="M195 353h-67v-353h-65v750h145q112 0 171.5 -42.5t59.5 -149.5q0 -62 -27.5 -113t-82.5 -63v-2q60 -15 79.5 -58.5t20.5 -124.5q0 -5 0.5 -30.5t2 -46.5t4.5 -46t10 -42t17 -23v-9h-71q-10 22 -16 58.5t-8 66t-3.5 70t-2.5 51.5q-3 36 -16.5 58.5t-39 32.5t-49.5 13
t-62 3zM128 692v-281h114q10 0 22.5 1.5t33 10t36.5 22.5t28 42t12 66q0 79 -36 109t-116 30h-94zM219 -223v29q32 12 32 69v11h-32v71h66v-46q0 -37 -2 -56q-4 -36 -18 -53.5t-46 -24.5z" />
    <glyph glyph-name="rcommaaccent" unicode="&#x157;" horiz-adv-x="278" 
d="M124 552v-64h2q22 43 52 61t79 17v-61q-65 1 -97.5 -37t-32.5 -106v-362h-58v552h55zM67 -223v29q32 12 32 69v11h-32v71h66v-46q0 -37 -2 -56q-4 -36 -18 -53.5t-46 -24.5z" />
    <glyph glyph-name="Rcaron" unicode="&#x158;" horiz-adv-x="500" 
d="M195 353h-67v-353h-65v750h145q112 0 171.5 -42.5t59.5 -149.5q0 -62 -27.5 -113t-82.5 -63v-2q60 -15 79.5 -58.5t20.5 -124.5q0 -5 0.5 -30.5t2 -46.5t4.5 -46t10 -42t17 -23v-9h-71q-10 22 -16 58.5t-8 66t-3.5 70t-2.5 51.5q-3 36 -16.5 58.5t-39 32.5t-49.5 13
t-62 3zM128 692v-281h114q10 0 22.5 1.5t33 10t36.5 22.5t28 42t12 66q0 79 -36 109t-116 30h-94zM215 830l82 74h65l-114 -112h-67l-113 112h64z" />
    <glyph glyph-name="rcaron" unicode="&#x159;" horiz-adv-x="278" 
d="M124 552v-64h2q22 43 52 61t79 17v-61q-65 1 -97.5 -37t-32.5 -106v-362h-58v552h55zM160 644l82 101h65l-114 -139h-67l-113 139h64z" />
    <glyph glyph-name="Sacute" unicode="&#x15a;" horiz-adv-x="500" 
d="M211 433l58 -24q43 -18 63.5 -27.5t50.5 -29t43.5 -38.5t24 -50t10.5 -71q0 -97 -58.5 -154t-156.5 -57q-100 0 -154 63.5t-52 166.5h64q-1 -76 33.5 -124t107.5 -48q69 0 110 41t41 110q0 21 -4.5 38.5t-9.5 30t-17.5 24.5t-20 19t-26.5 16t-27 12.5t-31.5 12.5
t-31.5 12q-57 23 -91 44.5t-58 62.5t-24 98q0 93 52.5 150t142.5 57q88 0 140.5 -55t50.5 -144h-63q3 63 -32 102t-97 39t-95.5 -40.5t-33.5 -104.5q0 -54 20 -82t71 -50zM254 792h-51l102 112h78z" />
    <glyph glyph-name="sacute" unicode="&#x15b;" horiz-adv-x="389" 
d="M44 407q-7 76 30 117.5t112 41.5q71 0 110.5 -41.5t39.5 -113.5h-57q-2 46 -26.5 75t-68.5 29q-40 0 -61 -23.5t-21 -64.5q0 -58 67 -84q46 -21 71.5 -35.5t54.5 -38.5t42 -56.5t13 -74.5q0 -73 -42 -112.5t-115 -39.5q-80 0 -120.5 42t-40.5 122h59q8 -113 106 -113
q44 0 69.5 29.5t25.5 74.5q0 40 -25 68.5t-60.5 46t-71.5 35t-62.5 46.5t-28.5 70zM194 606h-51l111 139h78z" />
    <glyph glyph-name="Scedilla" unicode="&#x15e;" horiz-adv-x="500" 
d="M126 -188l15 30q43 -15 63 -15q26 0 46.5 11.5t20.5 35.5q0 26 -29.5 35t-64.5 -4l-15 13l48 67q-84 11 -128 72.5t-42 154.5h64q-1 -76 33.5 -124t107.5 -48q69 0 110 41t41 110q0 21 -4.5 38.5t-9.5 30t-17.5 24.5t-20 19t-26.5 16t-27 12.5t-31.5 12.5t-31.5 12
q-57 23 -91 44.5t-58 62.5t-24 98q0 93 52.5 150t142.5 57q88 0 140.5 -55t50.5 -144h-63q3 63 -32 102t-97 39t-95.5 -40.5t-33.5 -104.5q0 -54 20 -82t71 -50l58 -24q43 -18 63.5 -27.5t50.5 -29t43.5 -38.5t24 -50t10.5 -71q0 -97 -58.5 -154t-156.5 -57l-32 -41
q21 6 32 6q37 0 59.5 -19.5t22.5 -52.5q0 -42 -33.5 -62t-78.5 -20q-44 0 -90 19z" />
    <glyph glyph-name="Scedilla" unicode="&#xf6c1;" horiz-adv-x="500" 
d="M126 -188l15 30q43 -15 63 -15q26 0 46.5 11.5t20.5 35.5q0 26 -29.5 35t-64.5 -4l-15 13l48 67q-84 11 -128 72.5t-42 154.5h64q-1 -76 33.5 -124t107.5 -48q69 0 110 41t41 110q0 21 -4.5 38.5t-9.5 30t-17.5 24.5t-20 19t-26.5 16t-27 12.5t-31.5 12.5t-31.5 12
q-57 23 -91 44.5t-58 62.5t-24 98q0 93 52.5 150t142.5 57q88 0 140.5 -55t50.5 -144h-63q3 63 -32 102t-97 39t-95.5 -40.5t-33.5 -104.5q0 -54 20 -82t71 -50l58 -24q43 -18 63.5 -27.5t50.5 -29t43.5 -38.5t24 -50t10.5 -71q0 -97 -58.5 -154t-156.5 -57l-32 -41
q21 6 32 6q37 0 59.5 -19.5t22.5 -52.5q0 -42 -33.5 -62t-78.5 -20q-44 0 -90 19z" />
    <glyph glyph-name="scedilla" unicode="&#x15f;" horiz-adv-x="389" 
d="M79 -188l15 30q43 -15 63 -15q26 0 46.5 11.5t20.5 35.5q0 26 -29.5 35t-64.5 -4l-15 13l51 70q-134 13 -134 162h59q8 -113 106 -113q44 0 69.5 29.5t25.5 74.5q0 40 -25 68.5t-60.5 46t-71.5 35t-62.5 46.5t-28.5 70q-7 76 30 117.5t112 41.5q71 0 110.5 -41.5
t39.5 -113.5h-57q-2 46 -26.5 75t-68.5 29q-40 0 -61 -23.5t-21 -64.5q0 -58 67 -84q46 -21 71.5 -35.5t54.5 -38.5t42 -56.5t13 -74.5q0 -70 -39.5 -109.5t-108.5 -42.5l-35 -45q21 6 32 6q37 0 59.5 -19.5t22.5 -52.5q0 -42 -33.5 -62t-78.5 -20q-44 0 -90 19z" />
    <glyph glyph-name="scedilla" unicode="&#xf6c2;" horiz-adv-x="389" 
d="M79 -188l15 30q43 -15 63 -15q26 0 46.5 11.5t20.5 35.5q0 26 -29.5 35t-64.5 -4l-15 13l51 70q-134 13 -134 162h59q8 -113 106 -113q44 0 69.5 29.5t25.5 74.5q0 40 -25 68.5t-60.5 46t-71.5 35t-62.5 46.5t-28.5 70q-7 76 30 117.5t112 41.5q71 0 110.5 -41.5
t39.5 -113.5h-57q-2 46 -26.5 75t-68.5 29q-40 0 -61 -23.5t-21 -64.5q0 -58 67 -84q46 -21 71.5 -35.5t54.5 -38.5t42 -56.5t13 -74.5q0 -70 -39.5 -109.5t-108.5 -42.5l-35 -45q21 6 32 6q37 0 59.5 -19.5t22.5 -52.5q0 -42 -33.5 -62t-78.5 -20q-44 0 -90 19z" />
    <glyph glyph-name="Scaron" unicode="&#x160;" horiz-adv-x="500" 
d="M211 433l58 -24q43 -18 63.5 -27.5t50.5 -29t43.5 -38.5t24 -50t10.5 -71q0 -97 -58.5 -154t-156.5 -57q-100 0 -154 63.5t-52 166.5h64q-1 -76 33.5 -124t107.5 -48q69 0 110 41t41 110q0 21 -4.5 38.5t-9.5 30t-17.5 24.5t-20 19t-26.5 16t-27 12.5t-31.5 12.5
t-31.5 12q-57 23 -91 44.5t-58 62.5t-24 98q0 93 52.5 150t142.5 57q88 0 140.5 -55t50.5 -144h-63q3 63 -32 102t-97 39t-95.5 -40.5t-33.5 -104.5q0 -54 20 -82t71 -50zM248 830l82 74h65l-114 -112h-67l-113 112h64z" />
    <glyph glyph-name="scaron" unicode="&#x161;" horiz-adv-x="389" 
d="M44 407q-7 76 30 117.5t112 41.5q71 0 110.5 -41.5t39.5 -113.5h-57q-2 46 -26.5 75t-68.5 29q-40 0 -61 -23.5t-21 -64.5q0 -58 67 -84q46 -21 71.5 -35.5t54.5 -38.5t42 -56.5t13 -74.5q0 -73 -42 -112.5t-115 -39.5q-80 0 -120.5 42t-40.5 122h59q8 -113 106 -113
q44 0 69.5 29.5t25.5 74.5q0 40 -25 68.5t-60.5 46t-71.5 35t-62.5 46.5t-28.5 70zM188 644l82 101h65l-114 -139h-67l-113 139h64z" />
    <glyph glyph-name="Tcommaaccent" unicode="&#x162;" 
d="M190 692h-170v58h405v-58h-170v-692h-65v692zM188 -223v29q32 12 32 69v11h-32v71h66v-46q0 -37 -2 -56q-4 -36 -18 -53.5t-46 -24.5z" />
    <glyph glyph-name="Tcommaaccent" unicode="&#x21a;" 
d="M190 692h-170v58h405v-58h-170v-692h-65v692zM188 -223v29q32 12 32 69v11h-32v71h66v-46q0 -37 -2 -56q-4 -36 -18 -53.5t-46 -24.5z" />
    <glyph glyph-name="tcommaaccent" unicode="&#x163;" horiz-adv-x="222" 
d="M201 43v-48q-57 -9 -75 -3q-37 13 -48.5 33.5t-11.5 62.5v413h-50v51h50v162h58v-162h77v-51h-77v-407q0 -47 29 -52q18 -7 48 1zM82 -223v29q32 12 32 69v11h-32v71h66v-46q0 -37 -2 -56q-4 -36 -18 -53.5t-46 -24.5z" />
    <glyph glyph-name="tcommaaccent" unicode="&#x21b;" horiz-adv-x="222" 
d="M201 43v-48q-57 -9 -75 -3q-37 13 -48.5 33.5t-11.5 62.5v413h-50v51h50v162h58v-162h77v-51h-77v-407q0 -47 29 -52q18 -7 48 1zM82 -223v29q32 12 32 69v11h-32v71h66v-46q0 -37 -2 -56q-4 -36 -18 -53.5t-46 -24.5z" />
    <glyph glyph-name="Tcaron" unicode="&#x164;" 
d="M190 692h-170v58h405v-58h-170v-692h-65v692zM218 830l82 74h65l-114 -112h-67l-113 112h64z" />
    <glyph glyph-name="tcaron" unicode="&#x165;" horiz-adv-x="262" 
d="M201 43v-48q-57 -9 -75 -3q-37 13 -48.5 33.5t-11.5 62.5v413h-50v51h50v162h58v-162h77v-51h-77v-407q0 -47 29 -52q18 -7 48 1zM215 570v29q32 12 32 69v11h-32v71h66v-46q0 -37 -2 -56q-4 -36 -18 -53.5t-46 -24.5z" />
    <glyph glyph-name="Umacron" unicode="&#x16a;" horiz-adv-x="556" 
d="M73 198v552h65v-544q0 -86 28.5 -126t108.5 -40q82 0 112.5 44t30.5 128v538h65v-522q0 -119 -46 -182.5t-160 -63.5q-204 0 -204 216zM130 842h296v-45h-296v45z" />
    <glyph glyph-name="umacron" unicode="&#x16b;" 
d="M321 132v420h58v-552h-56v51q-51 -65 -141 -65q-70 0 -96 42t-26 116v408h58v-418q0 -53 22.5 -77t74.5 -20q33 1 62.5 29t43.5 66zM76 690h296v-45h-296v45z" />
    <glyph glyph-name="Uring" unicode="&#x16e;" horiz-adv-x="556" 
d="M73 198v552h65v-544q0 -86 28.5 -126t108.5 -40q82 0 112.5 44t30.5 128v538h65v-522q0 -119 -46 -182.5t-160 -63.5q-204 0 -204 216zM278 753q-36 0 -62.5 27t-26.5 63t27 63t62 27q36 0 63 -26.5t27 -63.5q0 -36 -26.5 -63t-63.5 -27zM278 903q-24 0 -41.5 -17.5
t-17.5 -42.5q0 -24 18 -41.5t41 -17.5q24 0 42 18t18 41q0 24 -17.5 42t-42.5 18z" />
    <glyph glyph-name="uring" unicode="&#x16f;" 
d="M321 132v420h58v-552h-56v51q-51 -65 -141 -65q-70 0 -96 42t-26 116v408h58v-418q0 -53 22.5 -77t74.5 -20q33 1 62.5 29t43.5 66zM220 596q-40 0 -69.5 30t-29.5 70t29.5 70t69.5 30t70 -30t30 -70t-30 -70t-70 -30zM220 762q-27 0 -46.5 -19.5t-19.5 -46.5t20 -46.5
t46 -19.5t46 20t20 46t-19.5 46t-46.5 20z" />
    <glyph glyph-name="Uhungarumlaut" unicode="&#x170;" horiz-adv-x="556" 
d="M73 198v552h65v-544q0 -86 28.5 -126t108.5 -40q82 0 112.5 44t30.5 128v538h65v-522q0 -119 -46 -182.5t-160 -63.5q-204 0 -204 216zM367 792h-48l102 112h75zM207 792h-48l102 112h75z" />
    <glyph glyph-name="uhungarumlaut" unicode="&#x171;" 
d="M321 132v420h58v-552h-56v51q-51 -65 -141 -65q-70 0 -96 42t-26 116v408h58v-418q0 -53 22.5 -77t74.5 -20q33 1 62.5 29t43.5 66zM153 606h-48l111 139h75zM312 606h-48l111 139h75z" />
    <glyph glyph-name="Uogonek" unicode="&#x172;" horiz-adv-x="556" 
d="M354 -163q-21 -8 -56 -8q-37 0 -59 25.5t-22 58.5q0 44 33 70q-177 14 -177 215v552h65v-544q0 -86 28.5 -126t108.5 -40q82 0 112.5 44t30.5 128v538h65v-522q0 -111 -39.5 -174t-137.5 -71q-39 -25 -39 -59q0 -14 14 -27t26 -13q28 0 47 9v-56z" />
    <glyph glyph-name="uogonek" unicode="&#x173;" 
d="M390 -163q-21 -8 -56 -8q-37 0 -59 25.5t-22 58.5q0 35 17.5 55.5t52.5 35.5v47q-51 -65 -141 -65q-70 0 -96 42t-26 116v408h58v-418q0 -53 22.5 -77t74.5 -20q33 1 62.5 29t43.5 66v420h58v-552h-3q-73 -30 -73 -76q0 -14 14 -27t26 -13q28 0 47 9v-56z" />
    <glyph glyph-name="Ydieresis" unicode="&#x178;" horiz-adv-x="500" 
d="M249 393l165 357h68l-200 -431v-319h-65v319l-198 431h72zM140 792v102h64v-102h-64zM298 792v102h64v-102h-64z" />
    <glyph glyph-name="Zacute" unicode="&#x179;" 
d="M411 0h-377v60l307 632h-293v58h363v-56l-309 -636h309v-58zM230 792h-51l102 112h78z" />
    <glyph glyph-name="zacute" unicode="&#x17a;" horiz-adv-x="333" 
d="M315 0h-297v55l231 446h-219v51h280v-54l-229 -447h234v-51zM179 606h-51l111 139h78z" />
    <glyph glyph-name="Zdotaccent" unicode="&#x17b;" 
d="M411 0h-377v60l307 632h-293v58h363v-56l-309 -636h309v-58zM202 792v102h64v-102h-64z" />
    <glyph glyph-name="zdotaccent" unicode="&#x17c;" horiz-adv-x="333" 
d="M315 0h-297v55l231 446h-219v51h280v-54l-229 -447h234v-51zM141 617v102h64v-102h-64z" />
    <glyph glyph-name="Zcaron" unicode="&#x17d;" 
d="M411 0h-377v60l307 632h-293v58h363v-56l-309 -636h309v-58zM224 830l82 74h65l-114 -112h-67l-113 112h64z" />
    <glyph glyph-name="zcaron" unicode="&#x17e;" horiz-adv-x="333" 
d="M315 0h-297v55l231 446h-219v51h280v-54l-229 -447h234v-51zM168 644l82 101h65l-114 -139h-67l-113 139h64z" />
    <glyph glyph-name="florin" unicode="&#x192;" 
d="M12 -180l11 56q25 -12 50.5 -6t40.5 39q15 32 32 132l61 376h-110v46h119l12 64q8 38 13 60t19.5 59.5t31 57t45 32t63.5 5.5q29 -7 35 -10l-13 -55q-2 0 -12.5 4t-15.5 6q-13 1 -22.5 3t-18.5 -6t-15.5 -13t-12.5 -18.5t-9.5 -22t-7.5 -24t-6 -24t-5 -22t-4 -18.5
l-15 -78h116v-46h-124l-62 -381q-18 -111 -40 -154q-33 -64 -92 -70q-35 -4 -64 8z" />
    <glyph glyph-name="Scommaaccent" unicode="&#x218;" horiz-adv-x="500" 
d="M211 433l58 -24q43 -18 63.5 -27.5t50.5 -29t43.5 -38.5t24 -50t10.5 -71q0 -97 -58.5 -154t-156.5 -57q-100 0 -154 63.5t-52 166.5h64q-1 -76 33.5 -124t107.5 -48q69 0 110 41t41 110q0 21 -4.5 38.5t-9.5 30t-17.5 24.5t-20 19t-26.5 16t-27 12.5t-31.5 12.5
t-31.5 12q-57 23 -91 44.5t-58 62.5t-24 98q0 93 52.5 150t142.5 57q88 0 140.5 -55t50.5 -144h-63q3 63 -32 102t-97 39t-95.5 -40.5t-33.5 -104.5q0 -54 20 -82t71 -50zM214 -223v29q32 12 32 69v11h-32v71h66v-46q0 -37 -2 -56q-4 -36 -18 -53.5t-46 -24.5z" />
    <glyph glyph-name="scommaaccent" unicode="&#x219;" horiz-adv-x="389" 
d="M44 407q-7 76 30 117.5t112 41.5q71 0 110.5 -41.5t39.5 -113.5h-57q-2 46 -26.5 75t-68.5 29q-40 0 -61 -23.5t-21 -64.5q0 -58 67 -84q46 -21 71.5 -35.5t54.5 -38.5t42 -56.5t13 -74.5q0 -73 -42 -112.5t-115 -39.5q-80 0 -120.5 42t-40.5 122h59q8 -113 106 -113
q44 0 69.5 29.5t25.5 74.5q0 40 -25 68.5t-60.5 46t-71.5 35t-62.5 46.5t-28.5 70zM154 -223v29q32 12 32 69v11h-32v71h66v-46q0 -37 -2 -56q-4 -36 -18 -53.5t-46 -24.5z" />
    <glyph glyph-name="circumflex" unicode="&#x2c6;" horiz-adv-x="333" 
d="M249 605l-82 101l-83 -101h-64l113 139h67l114 -139h-65z" />
    <glyph glyph-name="caron" unicode="&#x2c7;" horiz-adv-x="333" 
d="M167 644l82 101h65l-114 -139h-67l-113 139h64z" />
    <glyph glyph-name="breve" unicode="&#x2d8;" horiz-adv-x="333" 
d="M23 738h40q7 -39 35.5 -60t69.5 -21t69.5 21t36.5 60h37q-6 -61 -46 -93.5t-102 -32.5q-59 0 -96.5 33.5t-43.5 92.5z" />
    <glyph glyph-name="dotaccent" unicode="&#x2d9;" horiz-adv-x="333" 
d="M135 617v102h64v-102h-64z" />
    <glyph glyph-name="ring" unicode="&#x2da;" horiz-adv-x="333" 
d="M166 596q-40 0 -69.5 30t-29.5 70t29.5 70t69.5 30t70 -30t30 -70t-30 -70t-70 -30zM166 762q-27 0 -46.5 -19.5t-19.5 -46.5t20 -46.5t46 -19.5t46 20t20 46t-19.5 46t-46.5 20z" />
    <glyph glyph-name="ogonek" unicode="&#x2db;" horiz-adv-x="333" 
d="M489 -163q-21 -8 -56 -8q-37 0 -59 25.5t-22 58.5q0 35 18 55.5t53 36.5h55v-4q-76 -30 -76 -77q0 -14 14 -27t26 -13q28 0 47 9v-56z" />
    <glyph glyph-name="tilde" unicode="&#x2dc;" horiz-adv-x="333" 
d="M269 627q-41 -12 -104 19q-60 26 -83 20q-3 -1 -6 -3t-5 -3.5t-4.5 -4.5t-4 -4t-3.5 -5l-2.5 -5t-2.5 -5.5t-2.5 -5.5t-2.5 -6t-2 -6h-37q6 41 30 69t60 28q23 0 66.5 -19t54.5 -22q32 -8 45 3.5t20 42.5h38q-8 -70 -55 -93z" />
    <glyph glyph-name="hungarumlaut" unicode="&#x2dd;" horiz-adv-x="333" 
d="M98 606h-48l111 139h75zM257 606h-48l111 139h75z" />
    <glyph glyph-name="Delta" unicode="&#x394;" horiz-adv-x="612" 
d="M326 688l282 -688h-602zM290 517l-218 -468h412z" />
    <glyph glyph-name="Delta" unicode="&#x2206;" horiz-adv-x="612" 
d="M326 688l282 -688h-602zM290 517l-218 -468h412z" />
    <glyph glyph-name="endash" unicode="&#x2013;" horiz-adv-x="500" 
d="M500 273h-500v51h500v-51z" />
    <glyph glyph-name="emdash" unicode="&#x2014;" horiz-adv-x="1000" 
d="M1000 273h-1000v51h1000v-51z" />
    <glyph glyph-name="quoteleft" unicode="&#x2018;" horiz-adv-x="160" 
d="M111 750v-37q-5 -2 -9.5 -5t-7.5 -8t-5.5 -8.5t-3.5 -10.5t-2 -10t-1.5 -12t-0.5 -10.5v-11.5v-10v-13h30v-88h-69v56q0 47 2 71q4 45 18.5 66.5t48.5 30.5z" />
    <glyph glyph-name="quoteright" unicode="&#x2019;" horiz-adv-x="160" 
d="M49 526v37q5 2 9.5 5t7.5 8t5.5 8.5t3.5 10.5t2 10t1.5 12t0.5 10.5v11.5v10v13h-30v88h69v-56q0 -47 -2 -71q-4 -45 -18.5 -66.5t-48.5 -30.5z" />
    <glyph glyph-name="quotesinglbase" unicode="&#x201a;" horiz-adv-x="222" 
d="M77 -136v37q5 2 9.5 5t7.5 8t5.5 8.5t3.5 10.5t2 10t1.5 12t0.5 10.5v11.5v10v13h-30v88h69v-56q0 -47 -2 -71q-4 -45 -18.5 -66.5t-48.5 -30.5z" />
    <glyph glyph-name="quotedblleft" unicode="&#x201c;" horiz-adv-x="333" 
d="M154 750v-37q-5 -2 -9.5 -5t-7.5 -8t-5.5 -8.5t-3.5 -10.5t-2 -10t-1.5 -12t-0.5 -10.5v-11.5v-10v-13h30v-88h-69v56q0 47 2 71q4 45 18.5 66.5t48.5 30.5zM284 750v-37q-5 -2 -9.5 -5t-7.5 -8t-5.5 -8.5t-3.5 -10.5t-2 -10t-1.5 -12t-0.5 -10.5v-11.5v-10v-13h30v-88
h-69v56q0 47 2 71q4 45 18.5 66.5t48.5 30.5z" />
    <glyph glyph-name="quotedblright" unicode="&#x201d;" horiz-adv-x="333" 
d="M179 526v37q5 2 9.5 5t7.5 8t5.5 8.5t3.5 10.5t2 10t1.5 12t0.5 10.5v11.5v10v13h-30v88h69v-56q0 -47 -2 -71q-4 -45 -18.5 -66.5t-48.5 -30.5zM49 526v37q5 2 9.5 5t7.5 8t5.5 8.5t3.5 10.5t2 10t1.5 12t0.5 10.5v11.5v10v13h-30v88h69v-56q0 -47 -2 -71
q-4 -45 -18.5 -66.5t-48.5 -30.5z" />
    <glyph glyph-name="quotedblbase" unicode="&#x201e;" horiz-adv-x="330" 
d="M196 -136v37q5 2 9.5 5t7.5 8t5.5 8.5t3.5 10.5t2 10t1.5 12t0.5 10.5v11.5v10v13h-30v88h69v-56q0 -47 -2 -71q-4 -45 -18.5 -66.5t-48.5 -30.5zM66 -136v37q5 2 9.5 5t7.5 8t5.5 8.5t3.5 10.5t2 10t1.5 12t0.5 10.5v11.5v10v13h-30v88h69v-56q0 -47 -2 -71
q-4 -45 -18.5 -66.5t-48.5 -30.5z" />
    <glyph glyph-name="dagger" unicode="&#x2020;" 
d="M252 539h160v-51h-160v-605h-58v605h-162v51h162v229h58v-229z" />
    <glyph glyph-name="daggerdbl" unicode="&#x2021;" 
d="M251 157h162v-51h-162v-223h-58v223h-162v51h162v338h-160v51h160v222h58v-222h162v-51h-162v-338z" />
    <glyph glyph-name="bullet" unicode="&#x2022;" horiz-adv-x="606" 
d="M490 375q0 -76 -55.5 -131t-132.5 -55q-76 0 -131 55t-55 131q0 77 55 132.5t131 55.5q77 0 132.5 -55.5t55.5 -132.5z" />
    <glyph glyph-name="ellipsis" unicode="&#x2026;" horiz-adv-x="1000" 
d="M202 0h-69v88h69v-88zM535 0h-69v88h69v-88zM868 0h-69v88h69v-88z" />
    <glyph glyph-name="perthousand" unicode="&#x2030;" horiz-adv-x="1000" 
d="M513 358q131 0 131 -181q0 -179 -132 -179q-41 0 -69 14.5t-41 42t-18 56t-5 66.5q0 181 134 181zM513 314q-78 1 -78 -136q0 -73 20 -104.5t60 -31.5q73 0 73 136q0 26 -2 45t-8.5 42t-23 36t-41.5 13zM835 358q131 0 131 -181q0 -179 -132 -179q-41 0 -69 14.5t-41 42
t-18 56t-5 66.5q0 181 134 181zM835 314q-78 1 -78 -136q0 -73 20 -104.5t60 -31.5q73 0 73 136q0 26 -2 45t-8.5 42t-23 36t-41.5 13zM168 728q131 0 131 -181q0 -179 -132 -179q-41 0 -69 14.5t-41 42t-18 56t-5 66.5q0 181 134 181zM168 684q-78 1 -78 -136
q0 -73 20 -104.5t60 -31.5q73 0 73 136q0 26 -2 45t-8.5 42t-23 36t-41.5 13zM165 -15l304 756h44l-305 -756h-43z" />
    <glyph glyph-name="guilsinglleft" unicode="&#x2039;" horiz-adv-x="333" 
d="M231 130l-141 106v70l141 106v-60l-101 -81l101 -79v-62z" />
    <glyph glyph-name="guilsinglright" unicode="&#x203a;" horiz-adv-x="333" 
d="M102 352v60l141 -106v-70l-141 -106v62l102 79z" />
    <glyph glyph-name="Euro" unicode="&#x20ac;" 
d="M408 705v-66q-43 45 -117 45q-69 0 -105.5 -59.5t-42.5 -162.5h227l-15 -53h-216q-1 -12 -1 -43q0 -30 1 -42h193l-14 -52h-175q7 -111 45.5 -168t102.5 -57q74 0 117 45v-68q-39 -37 -126 -37q-176 0 -199 285h-59l14 52h41q-1 11 -1 42q0 30 1 43h-55l14 53h45
q22 282 200 282q82 0 125 -39z" />
    <glyph glyph-name="trademark" unicode="&#x2122;" horiz-adv-x="722" 
d="M666 750v-421h-51v368h-2l-94 -368h-36l-93 368h-2v-368h-51v421h88l75 -297h2l78 297h86zM292 750v-51h-92v-370h-51v370h-92v51h235z" />
    <glyph glyph-name="partialdiff" unicode="&#x2202;" horiz-adv-x="494" 
d="M104 667l-39 50q98 43 181 23q106 -26 168 -134q48 -85 48 -213q0 -46 -13 -126t-39 -136q-24 -51 -44.5 -79t-59.5 -49q-54 -27 -104 -23.5t-91 31.5q-77 52 -84 145q-8 98 55 175q60 74 142 71q43 -1 70.5 -14t79.5 -54q9 48 11 116q1 34 -10 82.5t-22 76.5
q-13 29 -42 57.5t-70 31.5q-18 1 -31.5 1t-22.5 -1t-19.5 -4.5t-17 -6t-21 -9t-25.5 -11.5zM366 299q0 1 -12.5 15t-18 18.5t-18.5 14t-27.5 13t-31.5 3.5q-57 -2 -96 -54q-50 -69 -50 -161q0 -94 46 -125q39 -25 83 -5q51 22 81 93q30 74 44 188z" />
    <glyph glyph-name="summation" unicode="&#x2211;" horiz-adv-x="713" 
d="M617 745l6 -159h-20q-1 5 -4 13q-8 28 -14 41.5t-21.5 30t-43 23t-70.5 6.5h-263l273 -358l-294 -339h371q57 0 82.5 22t52.5 91h23q-30 -123 -43 -224q-72 11 -77 11h-503q-10 0 -29 -1.5t-29 -1.5l349 398l-347 454q8 0 46 -3.5t58 -3.5h497z" />
    <glyph glyph-name="radical" unicode="&#x221a;" horiz-adv-x="549" 
d="M26 417l-16 33l146 72l197 -403l127 798l35 -5l-150 -950l-243 502z" />
    <glyph glyph-name="notequal" unicode="&#x2260;" horiz-adv-x="549" 
d="M402 549l49 -28l-76 -136h165v-55h-195l-78 -139h273v-55h-303l-90 -161l-49 28l74 133h-157v55h188l77 139h-265v55h296z" />
    <glyph glyph-name="lessequal" unicode="&#x2264;" horiz-adv-x="549" 
d="M29 0v55h497v-55h-497zM29 347v62l497 230v-62l-433 -199l433 -199v-62z" />
    <glyph glyph-name="greaterequal" unicode="&#x2265;" horiz-adv-x="549" 
d="M526 55v-55h-497v55h497zM526 409v-62l-497 -230v62l433 199l-433 199v62z" />
    <glyph glyph-name="lozenge" unicode="&#x25ca;" horiz-adv-x="494" 
d="M272 0h-60l-194 377l194 368h60l194 -368zM406 377l-164 314l-164 -314l164 -323z" />
  </font>
</defs>
</svg>
